<?xml version="1.0" standalone="no"?>
<!DOCTYPE svg PUBLIC "-//W3C//DTD SVG 20010904//EN"
        "http://www.w3.org/TR/2001/REC-SVG-20010904/DTD/svg10.dtd">
<svg version="1.0" xmlns="http://www.w3.org/2000/svg"
     width="512.000000pt" height="512.000000pt" viewBox="0 0 512.000000 512.000000"
     preserveAspectRatio="xMidYMid meet">
    <metadata>
        Created by potrace 1.16, written by Peter Selinger 2001-2019
    </metadata>
    <g transform="translate(0.000000,512.000000) scale(0.100000,-0.100000)"
       fill="#000000" stroke="none">
        <path d="M0 5102 c0 -14 34 -27 168 -66 261 -77 328 -99 317 -102 -6 -3 -52 9
-103 25 -64 20 -92 25 -92 16 0 -7 34 -22 75 -34 l75 -23 0 -194 c0 -107 -3
-194 -7 -194 -5 0 -104 24 -221 54 -180 45 -212 51 -212 37 0 -13 41 -27 193
-64 184 -45 328 -77 348 -77 5 0 9 92 9 226 l0 225 28 -3 27 -3 3 -260 2 -259
33 -34 c17 -18 55 -49 84 -69 47 -32 51 -38 41 -57 -6 -12 -12 -23 -14 -25 -7
-7 -49 53 -46 66 5 24 -84 62 -218 92 -74 17 -214 51 -310 76 -96 24 -176 45
-177 45 -2 0 -3 -51 -3 -114 0 -82 4 -116 13 -119 10 -4 10 -6 0 -6 -9 -1 -13
-19 -13 -56 0 -48 3 -56 25 -67 46 -24 265 -232 254 -243 -6 -6 -28 9 -62 41
-118 112 -217 195 -217 180 0 -8 32 -41 72 -73 130 -106 140 -115 129 -126 -8
-8 -19 -4 -38 11 -16 11 -59 44 -96 72 l-68 51 3 -48 c3 -48 3 -48 50 -63 57
-18 77 -35 60 -52 -8 -8 -15 -8 -26 1 -8 7 -21 9 -27 5 -7 -4 -9 -3 -6 2 3 6
-7 15 -24 21 -28 11 -29 10 -29 -16 0 -14 9 -34 20 -44 27 -23 27 -41 0 -27
-20 10 -20 8 -20 -147 l0 -158 163 -23 c254 -35 337 -52 337 -69 0 -18 -23
-16 -295 28 -99 16 -186 29 -192 29 -8 0 -13 -13 -13 -30 0 -27 3 -30 30 -30
17 0 30 5 30 11 0 8 13 9 38 5 51 -9 287 -44 345 -51 l47 -6 0 -109 c0 -95 -2
-109 -17 -113 -17 -4 -17 -5 0 -6 9 0 17 -5 17 -11 0 -14 1 -14 -114 19 -130
38 -340 91 -360 91 -28 0 -17 -18 17 -29 63 -20 403 -109 444 -116 l42 -7 3
108 3 108 33 8 c26 7 38 5 59 -12 15 -11 29 -16 32 -11 4 5 27 2 56 -7 l50
-17 -4 -1045 c-2 -767 -6 -1047 -15 -1052 -6 -4 -21 -8 -32 -8 -20 0 -22 -7
-29 -111 -4 -61 -10 -123 -15 -139 -8 -27 -6 -30 28 -41 48 -15 63 -29 31 -29
-13 0 -180 -30 -371 -67 -337 -65 -348 -68 -348 -90 0 -13 2 -23 4 -23 2 0 51
11 108 24 201 47 650 136 687 136 42 0 59 -14 63 -49 3 -22 -11 -27 -307 -105
-171 -46 -363 -96 -429 -112 -107 -26 -141 -43 -122 -61 3 -4 84 14 178 40 95
25 270 71 388 103 277 74 263 72 278 39 18 -39 15 -54 -13 -65 -92 -35 -697
-187 -777 -195 -69 -8 -78 -26 -11 -21 27 2 75 -2 108 -8 l60 -12 -50 -19
c-27 -11 -54 -18 -60 -16 -41 15 -105 28 -105 21 0 -4 20 -13 45 -19 l46 -12
-31 -26 c-32 -27 -35 -47 -15 -109 5 -15 0 -23 -19 -32 -14 -6 -26 -18 -26
-26 0 -13 4 -13 35 0 34 14 35 14 41 -12 7 -26 0 -96 -12 -127 -4 -11 -1 -17
9 -17 19 0 27 30 27 108 0 58 2 63 26 72 36 14 39 13 19 -10 -24 -27 -7 -26
22 2 13 12 26 19 29 15 8 -7 6 -166 -2 -178 -3 -5 6 -9 19 -9 22 0 25 5 30 67
4 38 7 89 7 114 0 45 -1 47 -35 53 -34 7 -59 26 -33 26 7 0 36 11 65 24 47 22
53 23 73 9 l23 -16 -24 -18 -24 -19 32 6 c30 6 32 4 43 -36 9 -33 30 -142 30
-158 0 -1 -24 -14 -53 -27 l-52 -25 50 4 c36 2 103 27 235 86 201 90 409 176
590 245 157 60 287 113 335 138 22 11 93 39 157 63 165 61 158 54 158 145 0
41 -3 78 -6 81 -3 4 -37 -4 -75 -17 -38 -13 -116 -33 -174 -45 l-105 -21 -28
21 c-24 20 -34 21 -112 15 l-85 -7 -21 80 -21 79 30 9 c17 5 33 15 35 22 3 11
-3 10 -27 -2 l-31 -17 0 34 c0 19 -7 56 -15 83 -23 76 -25 74 69 74 l84 0 15
-68 c18 -81 30 -162 24 -162 -3 0 -12 43 -22 96 -9 52 -19 93 -22 90 -4 -4 36
-287 42 -294 8 -8 35 13 35 28 0 23 24 29 150 36 90 5 356 -9 367 -20 2 -2 -2
-45 -9 -96 l-12 -92 -58 -29 c-32 -16 -119 -56 -193 -89 -167 -74 -239 -110
-232 -116 7 -7 192 70 350 144 72 35 127 56 127 49 1 -32 28 46 34 98 12 98
65 354 80 383 22 41 122 135 136 127 6 -4 9 -14 6 -24 -11 -29 33 33 60 87 15
29 28 51 30 49 10 -10 -93 -292 -155 -424 -39 -84 -71 -156 -71 -161 0 -4 -27
-56 -60 -115 -33 -60 -63 -120 -66 -135 -11 -43 -102 -220 -159 -308 -74 -114
-79 -124 -61 -124 22 0 128 171 261 425 47 90 57 103 51 70 -4 -22 -13 -80
-22 -130 -19 -115 -47 -218 -79 -290 -14 -32 -25 -62 -25 -66 0 -6 69 -8 158
-7 l157 3 2 30 c29 358 111 619 325 1035 50 96 88 172 84 169 -3 -3 -42 -61
-87 -130 -101 -152 -138 -230 -199 -411 l-48 -140 -11 64 c-20 114 -8 386 23
533 11 54 12 37 10 -165 -2 -238 -1 -237 17 10 20 287 34 375 78 492 23 58 46
129 52 156 8 41 14 49 28 45 17 -4 17 -8 4 -45 -15 -45 -36 -245 -31 -299 2
-19 9 25 16 96 7 72 18 153 25 180 l13 50 62 7 c33 4 71 12 83 18 20 11 21 10
15 -15 -4 -15 -3 -24 2 -21 5 3 18 -65 30 -152 l21 -157 -125 -247 c-69 -137
-123 -248 -120 -248 3 0 18 23 32 52 14 29 61 111 104 182 42 72 86 149 97
170 l20 39 7 -49 c20 -145 36 -333 46 -534 11 -226 24 -367 34 -377 3 -3 28 0
55 7 l50 12 -15 36 c-22 52 -35 95 -29 101 3 2 21 -3 40 -12 46 -22 45 -22 34
15 -11 40 -12 57 -1 43 4 -5 16 -10 26 -10 15 0 25 -16 44 -73 13 -40 26 -71
29 -69 2 3 -9 81 -26 173 -39 222 -91 553 -91 580 0 12 16 55 35 97 46 100 44
109 -5 22 -24 -43 -41 -64 -44 -55 -11 35 -57 355 -81 575 l-6 50 30 -60 c16
-33 35 -75 42 -93 22 -61 40 22 19 88 -5 16 -7 1 -4 -40 l4 -65 -15 52 c-8 29
-24 71 -35 93 -24 47 -24 50 -6 50 26 0 63 -58 96 -147 40 -112 48 -199 26
-277 -10 -32 -15 -60 -12 -63 8 -8 46 79 47 106 l0 26 10 -25 c20 -47 49 -175
49 -215 1 -22 7 -53 15 -70 l15 -30 -5 35 c-4 29 -3 31 5 13 6 -15 4 -54 -5
-119 -16 -104 -19 -337 -6 -417 4 -26 18 -61 30 -78 21 -28 21 -33 11 -134 -6
-58 -22 -148 -35 -201 -14 -52 -34 -133 -44 -179 -18 -82 -18 -85 0 -85 13 0
20 10 25 38 23 138 102 474 108 464 4 -7 4 -27 0 -45 -4 -17 -7 -54 -5 -82 1
-27 -7 -106 -19 -175 -36 -223 -36 -200 -2 -200 29 0 30 2 23 28 -9 31 19 282
31 282 4 0 8 -12 8 -27 0 -15 16 -85 36 -155 l37 -128 77 0 77 0 -43 142 c-24
79 -44 144 -44 145 0 2 172 4 383 5 291 1 349 3 242 9 -77 3 -217 7 -311 8
-178 1 -264 8 -264 22 0 4 6 14 13 21 8 7 17 30 21 51 6 34 10 37 39 37 47 0
102 18 121 39 20 22 46 167 46 259 l0 62 239 0 c149 0 242 4 246 10 4 7 -77
10 -234 10 l-241 0 0 50 0 50 393 0 c217 0 442 -3 500 -6 105 -7 106 -7 109
-33 2 -19 19 -37 63 -66 l60 -40 -30 -6 c-30 -5 73 -14 283 -23 95 -4 102 -3
102 15 0 17 -11 19 -162 21 l-163 3 3 95 c2 52 9 101 14 107 6 8 35 13 74 13
50 0 64 -3 64 -15 0 -21 12 -19 33 5 13 16 29 20 77 20 33 0 60 4 60 10 0 13
-75 13 -163 0 -38 -6 -79 -7 -93 -4 -21 5 -24 12 -24 54 0 76 8 80 155 73 103
-5 125 -4 125 8 0 11 -26 14 -139 14 -119 0 -138 2 -133 15 3 8 10 18 16 22
15 10 160 9 214 -1 40 -8 42 -7 42 15 0 23 -4 24 -59 24 -32 0 -73 3 -90 6
-29 6 -31 9 -31 52 l0 45 90 -7 c56 -5 90 -4 90 2 0 14 -37 22 -112 22 l-68 0
0 114 c0 63 3 121 6 130 5 13 23 16 90 16 49 0 84 4 84 10 0 6 -35 10 -85 10
l-86 0 3 72 c3 83 3 82 111 93 40 5 57 11 57 21 0 11 -17 14 -80 14 l-80 0 1
88 c1 48 5 139 9 202 6 109 7 105 8 -82 l2 -197 58 6 c79 7 82 8 82 43 0 30 0
30 -57 30 l-56 0 8 193 c4 105 8 221 9 256 l1 65 48 24 c26 14 47 31 47 39 0
11 -11 8 -47 -11 -25 -15 -48 -24 -51 -22 -12 13 11 35 50 48 40 13 43 18 46
53 3 30 0 37 -12 32 -8 -3 -31 -9 -50 -13 l-36 -6 0 50 c0 55 5 61 60 77 l35
11 3 197 c1 108 -1 197 -5 197 -30 0 -241 -80 -295 -111 -36 -21 -71 -39 -77
-39 -6 0 -11 14 -11 31 0 29 5 33 113 83 61 29 149 66 195 82 45 16 82 34 82
41 0 16 -143 -35 -284 -101 -55 -25 -101 -44 -103 -42 -2 2 -7 28 -10 58 l-5
54 108 42 c60 23 150 57 199 76 79 30 90 38 93 60 2 16 -2 26 -10 26 -32 0
-188 -53 -310 -105 -14 -5 -18 -2 -18 11 1 15 38 35 168 89 l167 70 3 89 c2
78 1 88 -12 77 -8 -7 -20 -10 -26 -6 -18 11 -11 44 15 61 23 15 35 54 17 54
-18 0 -107 -102 -104 -119 4 -23 -23 -47 -34 -30 -4 7 0 17 9 24 9 7 14 14 12
17 -3 3 24 42 60 88 36 45 65 89 65 98 -1 15 -2 16 -13 1 -66 -86 -162 -199
-169 -199 -5 0 -7 -13 -3 -28 5 -26 2 -29 -29 -39 -48 -15 -66 5 -42 42 10 15
24 29 32 32 8 3 50 48 95 100 44 52 92 99 105 105 13 6 24 17 24 24 0 9 -17 3
-50 -16 -28 -17 -60 -30 -72 -30 -13 0 -58 -35 -117 -93 -104 -100 -193 -155
-297 -182 -65 -17 -210 -20 -219 -5 -4 6 16 10 52 10 166 0 405 124 522 270
23 29 36 38 41 30 11 -17 140 43 140 64 0 23 -17 20 -77 -14 -69 -39 -74 -38
-32 8 20 20 52 58 73 83 l36 47 -1 183 -1 184 -20 -45 c-50 -114 -135 -277
-182 -348 -62 -96 -174 -208 -243 -245 -78 -42 -190 -77 -244 -77 -53 0 -99
14 -99 30 0 7 6 8 18 2 91 -49 288 19 438 152 46 40 54 53 54 82 0 42 -24 54
-105 54 l-54 0 -3 52 c-2 41 -7 54 -20 56 -13 2 -18 -3 -18 -17 0 -14 -6 -21
-20 -21 -17 0 -20 7 -20 39 0 22 4 42 8 45 5 3 49 14 98 25 111 24 189 53 245
91 35 23 46 26 58 17 11 -10 13 -8 8 8 -5 15 5 33 42 72 47 48 56 68 25 56
-24 -9 -15 24 11 41 45 29 26 37 -26 11 -62 -32 -87 -28 -33 5 49 30 58 43 36
52 -31 12 -41 8 -57 -21 -13 -27 -48 -48 -68 -43 -4 1 -28 -3 -54 -8 -26 -6
-76 -8 -115 -4 -61 6 -70 10 -85 35 -20 34 -38 42 -64 29 -17 -10 -18 -8 -8
12 6 13 36 36 72 53 37 18 89 55 129 95 37 36 79 73 93 83 23 16 38 56 16 42
-23 -13 -18 15 10 56 39 59 37 65 -11 30 -76 -55 -249 -116 -264 -93 -7 11 40
26 54 17 16 -10 116 34 142 63 34 36 62 81 55 88 -3 3 -23 -8 -45 -25 -119
-96 -353 -106 -472 -20 -40 29 -40 30 -25 59 15 29 20 70 9 70 -3 0 -14 -5
-25 -11 -20 -10 -20 -9 -14 45 l7 56 -67 0 c-58 0 -68 -3 -72 -20 -5 -20 -14
-20 -390 -20 -376 0 -385 0 -390 20 -4 16 -14 20 -47 20 -33 -1 -37 -3 -23
-11 25 -15 21 -29 -9 -29 -17 0 -28 6 -31 20 -3 13 -14 20 -29 20 -20 0 -24
-5 -24 -31 0 -18 9 -47 21 -65 29 -47 22 -74 -26 -101 -110 -63 -275 -82 -375
-44 -47 18 -51 18 -48 3 2 -10 24 -24 53 -35 80 -28 224 -19 345 23 52 18 106
39 118 47 13 8 26 12 29 9 10 -10 -27 -44 -54 -51 -19 -4 -23 -9 -15 -17 9 -9
6 -18 -10 -35 -12 -13 -26 -23 -32 -23 -6 1 3 12 19 25 17 14 24 25 17 25 -6
0 -22 -11 -34 -25 -12 -14 -30 -24 -40 -23 -9 2 -24 -6 -33 -17 -9 -11 -14
-14 -10 -7 3 6 1 12 -5 12 -6 0 -8 5 -5 10 3 6 2 10 -4 10 -5 0 -13 -4 -16
-10 -3 -5 -1 -10 5 -10 6 0 8 -4 5 -10 -10 -16 -38 -12 -31 5 3 9 0 15 -9 15
-8 0 -15 -7 -15 -15 0 -8 -7 -15 -15 -15 -9 0 -15 9 -15 23 -1 21 -1 21 -12 2
-16 -30 -17 -30 -34 -9 -11 13 -17 15 -20 7 -6 -15 -34 -18 -34 -4 0 5 -9 11
-20 14 -11 3 -18 1 -14 -4 10 -17 -25 -9 -43 10 -19 19 -56 41 -70 41 -4 0 3
-10 17 -21 33 -27 18 -21 -52 19 -62 36 -70 43 -38 35 31 -8 24 9 -20 52 -44
43 -56 37 -13 -7 15 -15 22 -28 16 -28 -6 0 -16 7 -23 15 -20 24 -33 18 -25
-12 6 -27 6 -27 -14 -9 -25 23 -28 10 -4 -16 15 -16 15 -21 3 -28 -12 -7 -9
-15 15 -40 16 -16 25 -30 19 -30 -5 0 0 -8 12 -18 11 -9 31 -32 43 -50 13 -18
46 -44 74 -58 82 -41 167 -95 167 -105 0 -5 -9 -9 -19 -9 -11 0 -23 -4 -26
-10 -4 -6 -15 -4 -30 6 -18 12 -37 14 -72 10 -27 -4 -113 -6 -193 -6 -116 0
-155 -3 -195 -18 -62 -23 -236 -146 -262 -187 -53 -81 -60 -186 -20 -281 22
-52 26 -74 24 -155 -1 -89 1 -98 34 -169 62 -130 142 -220 194 -220 21 0 19
-8 -10 -46 -14 -18 -34 -53 -44 -77 -26 -60 -65 -87 -196 -136 -144 -54 -195
-89 -252 -174 -62 -92 -139 -250 -179 -367 l-33 -95 -41 -3 c-50 -4 -150 21
-204 51 -33 18 -41 28 -41 51 0 17 -7 33 -18 40 -16 9 -24 4 -58 -33 -21 -24
-37 -46 -34 -50 2 -4 -18 -15 -46 -23 l-49 -16 2 370 3 369 260 4 c264 3 305
7 305 30 0 8 19 16 49 20 37 5 50 11 54 26 3 11 14 19 26 19 33 0 101 31 111
51 14 25 12 39 -4 39 -30 0 -27 23 5 56 18 19 30 34 27 34 -10 0 -78 -40 -114
-67 -45 -33 -162 -32 -259 2 -38 14 -80 28 -93 30 -12 3 -48 17 -80 31 -31 14
-68 30 -82 35 -22 9 -23 8 -10 -4 16 -16 170 -83 254 -111 78 -26 153 -30 240
-12 82 17 100 15 75 -8 -40 -38 -218 -50 -287 -20 -21 8 -50 21 -67 29 -16 7
-75 32 -130 55 -106 45 -121 54 -228 134 -40 30 -62 52 -53 54 8 2 25 -2 38
-9 13 -8 26 -12 30 -11 4 1 33 -11 65 -27 133 -65 355 -121 485 -121 51 0 68
-3 58 -10 -8 -5 -25 -10 -38 -10 -13 0 -20 -4 -17 -10 9 -15 59 -12 102 5 49
20 118 115 84 115 -5 0 -30 -10 -57 -22 -97 -45 -345 -20 -536 54 -83 31 -100
45 -74 60 30 17 16 48 -30 62 -15 5 -29 -1 -47 -20 -20 -20 -33 -25 -52 -20
-22 6 -25 12 -25 50 l0 43 118 7 c64 3 119 11 120 16 2 6 27 10 55 11 97 1
142 12 142 34 0 20 11 25 93 45 23 6 57 24 76 40 18 17 43 30 53 30 25 0 75
38 70 53 -2 7 -19 10 -40 9 -20 -2 -37 -1 -37 2 0 3 21 17 48 30 26 13 56 33
66 45 24 26 17 27 -28 1 -45 -27 -54 -11 -16 30 55 59 29 69 -39 15 -64 -51
-135 -69 -261 -67 -60 1 -126 8 -155 17 -27 8 -36 13 -20 10 137 -22 303 -12
366 21 17 8 29 17 27 19 -2 2 -32 -3 -68 -12 -46 -11 -95 -14 -165 -10 -113 5
-191 25 -250 63 -45 29 -31 27 70 -10 39 -14 85 -26 102 -26 28 0 35 5 47 35
19 45 26 45 19 -1 l-6 -37 142 6 c110 4 149 10 169 23 33 21 72 55 72 64 0 3
-39 -7 -86 -23 -57 -18 -117 -30 -175 -34 -87 -6 -88 -6 -82 17 11 42 -51 57
-67 15 -7 -19 -17 -25 -40 -25 -39 0 -173 51 -223 85 -20 14 -42 23 -47 20
-19 -12 -10 -35 20 -50 37 -19 38 -32 5 -47 -20 -9 -33 -8 -65 7 -37 16 -53
35 -31 35 13 0 21 27 14 46 -4 11 -13 14 -29 10 -20 -5 -24 -3 -24 18 0 23 4
25 75 31 65 6 75 10 75 26 0 16 5 18 25 13 38 -9 125 15 125 35 0 13 8 16 38
13 40 -4 112 20 112 37 0 15 86 61 114 61 32 0 73 19 80 37 5 11 -2 13 -32 8
-37 -6 -37 -6 -16 12 12 10 36 26 53 35 31 17 49 43 37 55 -3 3 -14 -1 -23 -9
-33 -28 -49 -32 -27 -7 66 78 134 168 134 178 0 6 -25 -9 -55 -34 -68 -55
-109 -76 -205 -106 -66 -21 -95 -24 -235 -24 -88 0 -175 3 -192 7 -57 13 -36
-10 24 -28 46 -13 84 -16 198 -11 77 3 169 12 205 20 36 8 67 13 68 12 12 -11
-60 -40 -107 -43 -314 -19 -397 -13 -538 40 -53 19 -88 52 -76 71 3 6 9 49 12
96 l6 86 80 6 c44 3 88 9 97 14 43 18 9 25 -119 24 -99 0 -131 -3 -114 -10 41
-16 17 -20 -28 -4 -35 12 -121 15 -507 14 -434 0 -464 -1 -464 -17z m4306 -17
c-22 -17 -42 -19 -50 -6 -9 13 5 21 38 21 29 -1 30 -1 12 -15z m-8 -87 l3 -28
-475 0 -476 0 0 25 0 25 263 3 c144 1 357 2 472 2 l210 0 3 -27z m-3476 -69
c150 -37 152 -38 145 -45 -5 -5 -267 63 -276 72 -8 7 5 5 131 -27z m3625 -89
c101 -39 215 -37 338 5 13 4 12 1 -5 -9 -14 -8 -51 -21 -82 -27 -35 -7 -58
-17 -58 -25 0 -22 -18 -26 -43 -10 -13 9 -48 20 -78 26 -60 12 -165 57 -192
84 -9 10 -17 25 -17 35 0 14 9 9 39 -20 22 -20 66 -47 98 -59z m-104 -48 c14
-15 18 -25 10 -33 -13 -13 -61 48 -74 94 -18 62 -8 72 18 17 13 -30 34 -65 46
-78z m-3625 85 c19 -14 14 -37 -7 -37 -26 0 -76 44 -67 58 7 11 44 1 74 -21z
m2696 21 c-33 -57 -127 -148 -140 -135 -6 6 126 145 139 146 5 1 5 -5 1 -11z
m49 -5 c-6 -17 -45 -76 -78 -117 -10 -13 -18 -17 -25 -10 -7 7 8 32 42 77 53
66 73 83 61 50z m47 9 c0 -12 -62 -94 -67 -88 -5 5 54 96 62 96 3 0 5 -4 5 -8z
m26 -39 c-28 -55 -86 -116 -86 -91 0 9 16 35 35 59 20 23 40 50 46 60 5 11 14
19 20 19 5 0 -2 -21 -15 -47z m43 -15 c-23 -46 -57 -88 -72 -88 -8 0 1 18 62
115 31 51 39 31 10 -27z m71 55 c0 -3 -14 -37 -31 -75 -24 -51 -37 -68 -52
-68 -18 0 -19 2 -5 18 8 9 28 43 44 75 24 50 44 72 44 50z m190 -61 c-17 -53
-38 -82 -58 -82 -11 0 -13 3 -5 8 6 4 20 30 31 57 36 95 35 92 39 72 3 -9 -1
-34 -7 -55z m41 -4 c-6 -17 -11 -40 -11 -52 1 -12 12 10 25 48 27 76 41 98 32
51 -10 -51 -46 -125 -61 -125 -23 0 -24 21 -2 89 14 44 22 58 24 42 2 -12 -1
-36 -7 -53z m77 -6 c-23 -73 -31 -84 -42 -57 -8 21 48 144 61 132 2 -2 -7 -36
-19 -75z m55 18 c-15 -53 -37 -89 -48 -79 -6 6 32 109 47 127 18 21 18 9 1
-48z m187 27 c1 -12 9 -46 19 -74 10 -29 15 -53 12 -53 -17 1 -32 20 -41 51
-13 45 -13 112 0 104 6 -3 10 -16 10 -28z m56 -13 c4 -26 17 -58 31 -75 29
-34 25 -46 -7 -29 -27 14 -50 68 -50 115 0 50 18 43 26 -11z m-562 14 c-17
-57 -51 -111 -65 -102 -11 6 47 124 62 124 6 0 8 -9 3 -22z m54 10 c-3 -7 -13
-37 -23 -66 -13 -34 -24 -51 -32 -48 -7 3 -13 1 -13 -4 0 -6 -4 -10 -9 -10 -4
0 8 31 28 70 20 38 40 70 45 70 4 0 6 -6 4 -12z m52 -3 c0 -22 -28 -86 -47
-107 -32 -35 -32 -17 0 52 31 67 47 86 47 55z m264 -22 c-9 -51 -23 -86 -37
-95 -17 -11 -37 -10 -37 2 0 6 5 9 11 8 7 -2 21 25 32 60 23 68 42 84 31 25z
m32 -89 c-3 -8 -12 -14 -19 -14 -11 0 -11 12 2 71 l16 71 3 -57 c2 -32 1 -64
-2 -71z m59 62 c9 -80 5 -95 -19 -71 -13 13 -16 27 -12 48 3 16 6 42 6 58 0
55 18 29 25 -35z m-3299 -19 c16 -51 -49 -27 -84 31 l-25 44 51 -28 c29 -15
55 -36 58 -47z m177 -12 c-1 -5 5 -20 13 -32 21 -33 -5 -31 -37 3 -13 15 -57
42 -96 61 -40 19 -75 38 -77 42 -3 4 41 -8 97 -28 56 -20 101 -40 100 -46z
m3321 40 c10 -8 47 -24 82 -35 46 -16 61 -25 57 -36 -7 -18 -8 -18 -50 11 -41
27 -56 25 -30 -3 19 -21 22 -32 8 -32 -10 0 -101 92 -101 103 0 11 13 8 34 -8z
m-3409 -41 c30 -20 33 -44 5 -44 -12 0 -26 12 -35 30 -18 34 -7 39 30 14z
m2315 -19 c-14 -17 -30 -20 -30 -6 0 5 8 12 18 14 9 3 19 5 21 6 2 0 -2 -6 -9
-14z m175 -5 c-3 -5 -12 -10 -18 -10 -7 0 -6 4 3 10 19 12 23 12 15 0z m1109
4 c18 -7 22 -24 5 -24 -6 0 -17 7 -25 15 -16 16 -7 19 20 9z m-3394 -24 c23
-23 19 -40 -9 -40 -17 0 -39 19 -55 48 -12 21 42 14 64 -8z m445 -10 c-3 -5
-15 -10 -25 -10 -10 0 -22 5 -25 10 -4 6 7 10 25 10 18 0 29 -4 25 -10z m-347
-12 c17 -17 15 -40 -4 -36 -9 2 -23 13 -32 26 -13 20 -13 22 5 22 10 0 24 -5
31 -12z m96 -4 c21 -3 36 -12 36 -20 0 -23 -47 -16 -77 12 -17 15 -21 24 -11
20 9 -2 33 -8 52 -12z m161 6 c10 -16 -33 -32 -55 -20 -11 6 -20 14 -20 18 0
11 69 12 75 2z m1518 -7 c-7 -2 -19 -2 -25 0 -7 3 -2 5 12 5 14 0 19 -2 13 -5z
m158 -13 c22 0 39 -5 39 -10 0 -11 -75 -5 -140 11 -30 8 -29 8 14 4 27 -3 66
-5 87 -5z m144 -10 c-3 -5 -21 -9 -38 -9 l-32 1 30 8 c43 11 47 11 40 0z m84
-6 c2 -2 -7 -4 -22 -4 -14 0 -29 5 -32 10 -6 10 42 4 54 -6z m199 6 c77 0 132
-4 127 -9 -14 -12 -295 -1 -295 11 0 6 7 7 16 4 9 -3 77 -6 152 -6z m947 0 c3
-5 -3 -10 -14 -10 -11 0 -23 5 -26 10 -3 6 3 10 14 10 11 0 23 -4 26 -10z
m-685 -10 c0 -12 -97 -14 -104 -2 -3 5 19 10 49 11 32 1 55 -3 55 -9z m100 0
c11 -7 2 -10 -33 -10 -30 0 -46 4 -42 10 8 13 55 13 75 0z m85 0 c4 -6 -8 -10
-29 -10 -20 0 -36 5 -36 10 0 6 13 10 29 10 17 0 33 -4 36 -10z m90 0 c4 -6
-8 -10 -29 -10 -20 0 -36 5 -36 10 0 6 13 10 29 10 17 0 33 -4 36 -10z m90 0
c-8 -13 -35 -13 -55 0 -11 7 -5 10 23 10 23 0 36 -4 32 -10z m70 0 c4 -6 -5
-10 -19 -10 -14 0 -26 5 -26 10 0 6 9 10 19 10 11 0 23 -4 26 -10z m62 4 c-3
-3 -12 -4 -19 -1 -8 3 -5 6 6 6 11 1 17 -2 13 -5z m113 -4 c0 -5 -13 -10 -29
-10 -17 0 -33 5 -36 10 -4 6 8 10 29 10 20 0 36 -4 36 -10z m-2845 -15 c-16
-8 -37 -14 -45 -14 -8 0 1 7 20 14 46 18 64 17 25 0z m3156 -2 c-5 -10 -29
-36 -52 -58 -42 -39 -42 -39 7 17 53 61 60 68 45 41z m-3968 -99 c100 -25 184
-48 187 -51 11 -12 -360 76 -374 88 -15 14 -8 12 187 -37z m2715 -26 l-3 -63
-40 0 -40 0 -3 49 c-4 68 1 76 48 76 l41 0 -3 -62z m114 -3 l-4 -65 -44 0 -44
0 0 65 0 65 48 0 47 0 -3 -65z m-452 -4 c0 -54 -2 -59 -20 -54 -17 5 -20 14
-20 59 0 47 2 54 20 54 18 0 20 -7 20 -59z m198 2 l-3 -58 -82 -3 -83 -3 0 51
0 50 63 1 c44 0 56 3 42 9 -15 7 -10 9 23 9 l43 1 -3 -57z m692 -3 l0 -60 -70
0 -70 0 0 60 0 60 70 0 70 0 0 -60z m165 48 c2 -7 5 -34 8 -60 l5 -48 -54 0
-54 0 0 60 0 60 45 0 c28 0 47 -5 50 -12z m148 2 c14 0 17 -9 17 -55 l0 -55
-50 0 -50 0 0 54 c0 57 9 68 45 61 11 -3 28 -5 38 -5z m87 -60 c0 -47 -3 -60
-15 -60 -12 0 -15 13 -15 60 0 47 3 60 15 60 12 0 15 -13 15 -60z m-750 40
c12 -8 9 -10 -12 -10 -18 0 -28 -5 -28 -15 0 -8 -7 -15 -15 -15 -9 0 -15 9
-15 25 0 21 5 25 28 25 15 0 34 -5 42 -10z m150 -25 c0 -34 -1 -35 -40 -35
-38 0 -40 1 -30 20 6 11 8 25 5 30 -12 19 -24 10 -28 -22 -4 -32 -4 -32 -5 5
l-2 37 50 0 50 0 0 -35z m32 -15 l3 -50 -135 2 -135 2 123 3 122 4 0 44 c0 61
17 57 22 -5z m-142 10 l0 -30 -57 2 -58 2 53 3 c28 2 52 9 52 15 0 5 -7 8 -15
4 -18 -7 -19 0 -2 19 19 22 27 18 27 -15z m-2867 -55 l97 -28 0 -59 0 -58 -27
6 c-123 28 -312 76 -330 84 -20 8 -23 17 -23 69 l0 59 93 -23 c50 -12 136 -35
190 -50z m167 -60 c0 -86 -2 -95 -19 -95 -15 0 -19 10 -24 61 -7 85 1 129 24
129 17 0 19 -9 19 -95z m1844 69 c6 -15 4 -15 -11 -3 -10 7 -20 15 -22 16 -2
2 3 3 11 3 9 0 19 -7 22 -16z m95 -44 c-10 -22 -16 -26 -26 -18 -17 14 -16 28
2 28 8 0 18 12 22 28 5 20 8 22 11 9 2 -9 -2 -30 -9 -47z m1531 40 c0 -13 -7
-20 -20 -20 -22 0 -23 1 -14 24 9 23 34 20 34 -4z m-1749 -19 c24 -15 60 -46
79 -67 l35 -38 -37 27 c-46 34 -157 87 -180 87 -10 0 -18 5 -18 10 0 22 76 10
121 -19z m112 -24 c13 -17 27 -39 31 -47 4 -8 -3 -1 -15 15 -13 17 -37 43 -54
59 -22 22 -24 26 -8 17 12 -6 33 -26 46 -44z m237 43 c0 -13 -40 -13 -60 0
-11 7 -5 10 23 10 20 0 37 -4 37 -10z m-625 -20 c4 -6 -16 -10 -52 -10 -41 0
-54 3 -43 10 20 13 87 13 95 0z m2112 -6 c-3 -3 -12 -4 -19 -1 -8 3 -5 6 6 6
11 1 17 -2 13 -5z m-989 -17 c437 -3 415 1 427 -74 5 -35 4 -43 -9 -43 -20 0
-39 36 -33 66 3 16 0 24 -9 24 -7 0 -16 -16 -19 -37 -10 -60 -15 -70 -24 -54
-5 7 -4 31 1 53 5 22 6 43 3 46 -12 12 -24 -16 -27 -63 -3 -45 -1 -50 20 -53
27 -4 29 -22 2 -22 -11 0 -20 5 -20 11 0 8 -6 7 -17 -2 -15 -13 -16 -9 -11 54
4 51 3 67 -7 67 -8 0 -16 -17 -20 -39 -8 -47 -61 -104 -75 -81 -7 11 -11 11
-24 1 -13 -11 -17 -11 -22 2 -3 9 -12 13 -19 10 -8 -3 -1 20 18 54 21 39 33
52 35 40 2 -10 -6 -33 -17 -52 -11 -19 -16 -37 -11 -40 10 -6 50 51 50 72 0 6
2 17 5 25 4 10 -21 14 -123 16 l-129 3 -13 -31 c-15 -35 -63 -90 -79 -90 -11
0 53 98 74 112 5 4 1 8 -10 8 -13 0 -27 -12 -39 -34 -18 -34 -76 -97 -76 -82
0 4 11 22 24 39 39 52 49 77 32 77 -7 0 -16 -10 -20 -22 -8 -32 -64 -98 -83
-98 -12 0 -11 4 5 18 26 23 63 87 55 95 -10 11 -35 8 -28 -3 15 -25 -83 -136
-103 -116 -4 4 1 12 10 17 17 9 78 91 78 103 0 3 -7 6 -15 6 -8 0 -15 -7 -15
-15 0 -20 -69 -95 -87 -95 -9 0 1 17 26 46 44 50 50 64 27 64 -8 0 -17 -11
-20 -24 -7 -29 -79 -96 -103 -96 -12 0 0 17 37 55 29 30 51 58 46 62 -4 4 -32
-21 -62 -55 -37 -41 -63 -62 -77 -62 -18 1 -10 12 42 60 84 79 59 78 -29 -1
-38 -34 -75 -59 -81 -57 -7 2 8 18 33 36 43 30 88 82 70 82 -5 0 -17 -10 -28
-21 -22 -25 -120 -99 -131 -99 -13 0 61 71 90 87 16 8 26 17 23 20 -7 7 -97
-50 -121 -77 -10 -11 -25 -20 -34 -20 -12 1 -10 5 8 20 27 23 11 27 -23 5 -21
-14 -23 -14 -34 9 -9 21 -9 24 4 19 24 -9 63 17 75 51 l11 31 102 -2 c55 -2
278 -4 494 -6z m-3545 -36 c61 -26 117 -77 117 -107 0 -34 -26 -31 -45 5 -17
33 -33 42 -56 30 -13 -7 -28 4 -65 48 -45 52 -46 56 -22 50 14 -4 46 -15 71
-26z m4549 4 c11 -24 15 -25 112 -27 56 -2 132 -1 171 0 38 2 67 1 64 -2 -3
-3 -43 -12 -90 -21 -71 -12 -75 -14 -24 -9 75 6 137 22 130 33 -3 5 1 11 8 14
9 3 13 -2 12 -16 -1 -20 -12 -24 -96 -39 -92 -17 -129 -16 -129 3 0 5 -8 9
-17 9 -17 -1 -17 -1 0 -14 9 -7 17 -16 17 -20 0 -12 -39 -6 -47 8 -4 8 -21 18
-38 22 l-30 7 25 -21 c14 -12 23 -22 20 -22 -20 -4 -71 -7 -57 -3 14 4 10 10
-22 33 -59 43 -80 90 -41 90 12 0 25 -10 32 -25z m-474 -24 c7 -21 24 -50 39
-65 14 -14 23 -29 19 -33 -12 -12 -76 60 -82 94 -4 23 -12 33 -24 33 -16 0
-17 -5 -9 -37 5 -21 9 -42 9 -48 1 -5 5 -1 10 10 7 16 9 17 9 3 1 -9 8 -24 17
-33 28 -28 7 -28 -30 0 -21 16 -36 36 -36 49 0 11 -3 31 -6 44 -6 20 -3 22 33
22 38 0 41 -2 51 -39z m63 -16 c10 -27 19 -54 19 -59 0 -18 -28 16 -46 56 -10
24 -23 47 -29 51 -5 4 0 7 14 5 18 -2 28 -15 42 -53z m42 15 c10 -22 31 -53
47 -70 15 -16 24 -32 19 -35 -10 -7 -79 62 -79 78 0 7 -7 24 -14 40 -11 19
-12 27 -3 27 7 0 20 -18 30 -40z m302 30 c3 -5 -6 -12 -20 -16 -26 -6 -24 -8
35 -47 40 -26 57 -43 49 -48 -13 -8 -53 18 -122 78 -20 18 -43 33 -49 33 -16
0 81 -98 104 -106 22 -6 24 -24 3 -24 -20 0 -80 54 -105 96 -26 41 -47 46 -26
5 24 -46 68 -93 101 -107 l30 -13 -35 3 c-19 2 -34 9 -32 15 1 6 -4 11 -10 11
-15 0 -62 57 -80 94 -10 24 -38 37 -38 18 0 -12 52 -83 73 -101 17 -14 23 -41
10 -41 -5 0 -16 12 -26 28 -42 65 -87 123 -87 112 0 -17 19 -49 53 -93 16 -21
27 -40 24 -43 -11 -12 -47 33 -71 89 -14 31 -30 57 -36 57 -6 0 3 -28 20 -62
l31 -63 -33 36 c-18 20 -38 51 -45 68 l-11 31 143 0 c82 0 146 -4 150 -10z
m-2151 -8 c2 -4 -12 -6 -32 -4 -62 6 -69 10 -20 11 26 0 49 -3 52 -7z m39 -44
c-24 -36 -31 -54 -22 -55 65 -9 93 -17 108 -31 10 -9 26 -22 37 -28 16 -9 123
-140 191 -234 14 -18 18 -43 18 -106 0 -83 6 -90 20 -24 12 58 33 90 59 90 29
0 41 -15 50 -59 7 -38 -22 -99 -65 -136 -12 -11 -19 -14 -15 -7 6 10 3 13 -10
10 -11 -2 -20 -13 -22 -26 -12 -86 -214 -221 -344 -230 -59 -4 -59 -4 -99 39
-44 48 -124 199 -135 254 -3 19 -3 51 0 70 7 34 8 35 56 35 36 0 50 4 50 14 0
18 -54 40 -81 33 -17 -5 -20 -1 -17 21 3 25 6 27 51 25 27 -2 47 2 47 7 0 13
-43 30 -77 30 -25 0 -25 2 -20 45 12 85 83 188 137 200 19 4 43 25 70 61 52
69 59 70 13 2z m1177 42 c0 -11 -82 -108 -92 -109 -16 -2 -7 20 30 68 34 47
62 65 62 41z m50 5 c0 -28 -84 -124 -97 -111 -6 5 79 116 90 116 4 0 7 -2 7
-5z m40 0 c0 -3 -11 -23 -25 -45 -27 -43 -29 -50 -17 -50 4 0 21 23 37 50 28
49 45 63 45 38 -1 -23 -60 -108 -75 -108 -3 0 -13 6 -21 14 -12 13 -10 21 13
60 24 40 43 57 43 41z m1163 -22 c-7 -2 -19 -2 -25 0 -7 3 -2 5 12 5 14 0 19
-2 13 -5z m-4580 -40 c39 -18 63 -36 73 -55 33 -63 -17 -65 -73 -3 -22 25 -49
45 -60 45 -12 0 -28 12 -38 26 l-17 27 28 -7 c16 -4 55 -19 87 -33z m2460 -6
c31 -16 55 -32 53 -34 -2 -2 -28 8 -57 23 -29 14 -69 33 -89 40 l-35 14 35 -6
c19 -3 61 -20 93 -37z m-2003 3 c4 0 35 -21 68 -47 33 -27 68 -54 78 -61 11
-7 6 -6 -11 2 -16 8 -54 33 -84 55 -30 23 -60 41 -67 41 -7 0 -16 5 -20 12 -5
8 -2 9 10 5 10 -4 21 -7 26 -7z m3265 -48 c2 -2 13 2 25 8 18 10 21 9 18 -2
-6 -19 -52 -22 -67 -4 -8 9 -10 23 -6 33 6 16 8 15 16 -7 6 -13 12 -26 14 -28z
m-3532 12 c67 -42 86 -74 43 -74 -45 0 -77 19 -91 55 -8 19 -15 37 -15 40 0
11 22 4 63 -21z m235 12 c57 -29 133 -86 116 -86 -14 0 -154 87 -154 97 0 6
11 3 38 -11z m-113 -22 c41 -27 22 -26 -36 1 -45 21 -48 25 -22 21 18 -3 44
-13 58 -22z m2027 -10 c57 -19 135 -40 173 -44 l70 -9 -75 4 c-56 3 -103 14
-185 44 -60 22 -104 40 -98 40 7 1 59 -15 115 -35z m1250 4 c-9 -9 -15 -9 -24
0 -10 10 -10 15 2 22 20 12 38 -6 22 -22z m-252 18 c0 -3 -4 -8 -10 -11 -5 -3
-10 -1 -10 4 0 6 5 11 10 11 6 0 10 -2 10 -4z m1260 -16 c-57 -20 -99 -25 -86
-12 8 7 99 29 126 30 8 0 -10 -8 -40 -18z m-3690 -25 c29 -20 96 -49 151 -66
54 -17 101 -34 104 -39 8 -13 -6 -40 -20 -40 -8 0 -26 5 -42 11 -22 8 -24 12
-13 19 12 8 9 10 -10 10 -51 0 -230 102 -230 131 0 14 4 12 60 -26z m2900 25
c0 -5 -7 -10 -15 -10 -8 0 -15 5 -15 10 0 6 7 10 15 10 8 0 15 -4 15 -10z
m165 0 c3 -5 -1 -10 -9 -10 -9 0 -16 5 -16 10 0 6 4 10 9 10 6 0 13 -4 16 -10z
m-3339 -21 c10 -11 47 -36 82 -56 76 -42 76 -55 0 -18 -62 32 -118 72 -118 86
0 15 16 10 36 -12z m177 -8 c56 -38 130 -74 195 -96 67 -21 62 -29 -9 -14 -76
16 -239 104 -239 129 0 15 8 13 53 -19z m272 -32 c88 -27 200 -49 251 -49 32
0 44 -4 42 -12 -6 -17 -57 -23 -71 -9 -6 6 -25 11 -43 11 -37 0 -260 62 -303
85 -52 26 -44 36 11 14 29 -11 80 -29 113 -40z m3335 41 c0 -5 -13 -10 -30
-10 -16 0 -30 5 -30 10 0 6 14 10 30 10 17 0 30 -4 30 -10z m64 -2 c-15 -7
-28 -7 -40 1 -16 9 -12 10 21 10 35 0 37 -2 19 -11z m-4155 -9 c24 -9 31 -16
29 -33 -5 -34 -39 -27 -55 12 -7 17 -11 32 -10 32 2 0 18 -5 36 -11z m393 -7
c-1 -8 2 -11 8 -7 5 3 23 -3 40 -15 16 -11 50 -30 75 -41 26 -11 44 -23 42
-26 -9 -9 -75 17 -134 53 -73 44 -86 57 -53 52 14 -2 24 -9 22 -16z m3600 6
c-17 -8 -26 -8 -34 0 -9 9 -4 12 23 11 32 0 33 -1 11 -11z m401 -161 c-81
-161 -145 -244 -289 -371 -49 -44 -99 -90 -112 -103 -24 -24 -59 -33 -46 -11
5 8 2 9 -10 5 -59 -23 -132 -37 -203 -40 -88 -4 -93 -2 -93 49 l0 25 33 -18
c94 -50 309 14 450 135 131 112 256 302 312 476 4 15 8 17 18 7 9 -9 -4 -43
-60 -154z m-4764 67 c2 -2 2 -6 0 -8 -4 -4 -161 36 -199 51 -18 7 -29 9 -55
12 -14 1 -16 4 -7 9 10 7 247 -51 261 -64z m628 39 c3 -8 -3 -24 -14 -35 -19
-19 -22 -19 -50 -4 -27 13 -43 34 -43 54 0 14 101 0 107 -15z m163 -51 c0 -12
-22 -32 -35 -32 -19 0 -75 54 -79 76 -4 21 -3 21 55 -7 32 -16 59 -32 59 -37z
m815 58 c-11 -18 -65 -41 -77 -33 -8 4 2 13 27 25 46 20 59 22 50 8z m2505
-16 c6 -14 10 -70 10 -125 0 -99 0 -99 -25 -99 l-25 0 0 109 c0 60 3 116 6
125 9 24 23 19 34 -10z m-3654 -11 c-7 -7 -26 7 -26 19 0 6 6 6 15 -2 9 -7 13
-15 11 -17z m2322 -13 c38 -57 25 -158 -28 -205 -21 -19 -21 -18 4 29 36 67
34 91 -11 132 -33 31 -35 36 -25 60 15 31 30 28 60 -16z m159 33 c-20 -2 -52
-2 -70 0 -17 2 0 4 38 4 39 0 53 -2 32 -4z m98 -108 c0 -106 -1 -110 -22 -113
-23 -3 -23 -2 -23 113 0 115 0 116 23 113 21 -3 22 -7 22 -113z m128 108 c-13
-2 -35 -2 -50 0 -16 2 -5 4 22 4 28 0 40 -2 28 -4z m697 -2 c25 -4 -106 -5
-290 -3 -184 2 -342 5 -350 6 -31 7 597 4 640 -3z m157 -8 c-20 -2 -52 -2 -70
0 -17 2 0 4 38 4 39 0 53 -2 32 -4z m183 -3 c0 -5 -13 -10 -30 -10 -16 0 -30
5 -30 10 0 6 14 10 30 10 17 0 30 -4 30 -10z m78 -77 l3 -83 -31 0 -30 0 0 86
0 85 28 -3 c27 -3 27 -4 30 -85z m-3337 15 c14 -21 10 -28 -14 -28 -27 0 -63
23 -77 50 -10 18 -8 19 36 5 26 -8 51 -20 55 -27z m-847 1 c8 -9 6 -10 -7 -5
-11 3 -30 9 -43 12 -13 3 -24 10 -24 14 0 11 61 -6 74 -21z m1194 25 c12 -4
22 -11 22 -16 0 -14 -73 -5 -78 10 -4 13 19 16 56 6z m1222 -31 c0 -7 -39 17
-46 28 -3 6 5 3 20 -6 14 -10 26 -19 26 -22z m-1470 16 c51 -11 59 -23 27 -43
-12 -8 -22 -5 -40 12 -13 12 -28 22 -35 22 -6 0 -14 5 -17 10 -8 13 2 13 65
-1z m1585 -8 c46 -5 54 -8 35 -13 -28 -8 -87 3 -116 21 -18 12 -18 12 1 5 11
-4 47 -10 80 -13z m85 -23 c0 -38 -5 -34 -13 10 -4 21 -3 31 3 27 6 -3 10 -20
10 -37z m490 -48 l0 -80 -70 0 -70 0 0 80 0 80 70 0 70 0 0 -80z m428 70 l202
0 0 -50 0 -50 -75 0 -75 0 0 30 c0 17 -4 30 -10 30 -5 0 -10 -13 -10 -30 0
-16 -4 -30 -10 -30 -5 0 -10 16 -10 36 0 21 -4 33 -10 29 -5 -3 -10 -17 -10
-31 0 -24 -1 -24 -95 -24 l-95 0 0 31 c0 42 -34 37 -38 -6 l-3 -31 -69 4 -70
4 0 -40 c0 -23 -4 -44 -10 -47 -6 -4 -10 29 -10 91 l0 97 98 -6 c53 -4 188 -7
300 -7z m-658 -45 l0 -45 -45 0 c-43 0 -45 -1 -45 -30 0 -27 -3 -30 -32 -30
l-33 0 3 75 4 75 74 0 74 0 0 -45z m1070 -30 c0 -60 -3 -75 -15 -75 -10 0 -15
10 -15 30 0 29 -1 30 -50 30 -49 0 -50 -1 -50 -29 0 -21 -6 -32 -20 -36 -33
-11 -40 3 -40 81 l0 74 95 0 95 0 0 -75z m-2470 60 c0 -10 -76 -37 -145 -51
-38 -8 -113 -17 -165 -19 l-95 -4 105 13 c115 15 233 41 259 56 17 10 41 13
41 5z m975 -13 c-3 -3 -11 0 -18 7 -9 10 -8 11 6 5 10 -3 15 -9 12 -12z m1655
-27 c0 -43 -1 -45 -30 -45 -29 0 -30 2 -30 45 0 43 1 45 30 45 29 0 30 -2 30
-45z m-1464 -60 c-8 -19 -20 -35 -27 -35 -7 0 -8 7 -4 18 17 41 17 48 3 31 -7
-9 -24 -21 -38 -28 -24 -11 -24 -11 -5 4 10 8 25 28 31 43 7 15 13 21 13 15 1
-7 6 -13 12 -13 7 0 9 12 6 33 l-6 32 15 -33 c12 -28 12 -37 0 -67z m-2827 23
c36 -35 112 -96 169 -136 56 -40 102 -77 102 -82 0 -20 -29 -9 -66 26 -22 20
-52 43 -69 51 -16 9 -48 30 -71 49 -44 36 -151 154 -139 154 4 0 37 -28 74
-62z m2724 45 c-7 -2 -21 -2 -30 0 -10 3 -4 5 12 5 17 0 24 -2 18 -5z m-2693
-20 c14 -9 50 -38 80 -64 30 -25 94 -71 143 -102 67 -42 83 -56 68 -60 -11 -2
-34 4 -51 15 -58 34 -214 156 -249 192 -37 38 -32 47 9 19z m1220 -19 c0 -2
-11 -4 -25 -4 -14 0 -25 4 -25 9 0 4 11 6 25 3 14 -2 25 -6 25 -8z m-1108 -9
c21 -4 220 -166 213 -173 -2 -3 -46 23 -97 57 -100 66 -186 137 -153 126 11
-4 28 -8 37 -10z m4325 -47 c-2 -13 -4 -5 -4 17 -1 22 1 32 4 23 2 -10 2 -28
0 -40z m-4093 -67 c78 -78 95 -100 80 -103 -13 -3 -51 26 -121 92 -57 52 -103
98 -103 103 0 4 10 7 23 7 15 0 54 -32 121 -99z m2636 89 c0 -5 -4 -10 -10
-10 -5 0 -10 5 -10 10 0 6 5 10 10 10 6 0 10 -4 10 -10z m40 -11 c0 -11 -4
-17 -10 -14 -5 3 -10 13 -10 21 0 8 5 14 10 14 6 0 10 -9 10 -21z m757 15 c-3
-3 -12 -4 -19 -1 -8 3 -5 6 6 6 11 1 17 -2 13 -5z m96 -1 c-13 -2 -35 -2 -50
0 -16 2 -5 4 22 4 28 0 40 -2 28 -4z m137 -13 c0 -11 -4 -20 -10 -20 -5 0 -10
9 -10 20 0 11 5 20 10 20 6 0 10 -9 10 -20z m27 -12 c-3 -7 -5 -2 -5 12 0 14
2 19 5 13 2 -7 2 -19 0 -25z m-3636 -68 c105 -94 226 -186 235 -178 2 3 -30
31 -72 63 -42 32 -109 89 -148 126 -59 57 -66 67 -41 59 17 -6 50 -31 75 -55
64 -62 203 -169 288 -222 39 -25 72 -51 72 -59 0 -16 -61 21 -101 61 -23 23
-31 25 -75 20 -48 -6 -51 -5 -123 52 -67 53 -233 223 -217 223 4 0 52 -41 107
-90z m3213 80 c158 -1 256 -4 256 -10 0 -6 -101 -10 -265 -10 -233 0 -265 2
-265 16 0 8 4 13 9 10 5 -4 124 -6 265 -6z m693 -22 c-3 -7 -5 -2 -5 12 0 14
2 19 5 13 2 -7 2 -19 0 -25z m93 6 c0 -8 -4 -12 -10 -9 -5 3 -10 13 -10 21 0
8 5 12 10 9 6 -3 10 -13 10 -21z m-46 1 c-4 -8 -8 -15 -10 -15 -2 0 -4 7 -4
15 0 8 4 15 10 15 5 0 7 -7 4 -15z m-3874 -24 c0 -13 148 -127 266 -204 102
-67 137 -97 115 -97 -7 0 -24 8 -39 19 -15 10 -74 49 -130 86 -114 75 -258
204 -229 205 9 0 17 -4 17 -9z m2247 -38 c-3 -10 -5 -4 -5 12 0 17 2 24 5 18
2 -7 2 -21 0 -30z m-2127 7 c0 -10 -38 -1 -45 10 -2 4 7 5 20 2 14 -2 25 -8
25 -12z m3804 1 c157 -5 200 -9 204 -20 3 -9 0 -11 -7 -6 -25 15 -61 -5 -82
-46 l-20 -41 -830 4 -829 3 -15 44 c-8 25 -15 51 -15 58 0 11 125 13 698 12
383 -1 787 -4 896 -8z m-3701 -21 c5 -4 4 -11 -2 -14 -6 -4 -11 -2 -11 3 0 6
-12 11 -27 11 -16 0 -35 5 -43 11 -11 7 -3 8 30 4 25 -4 49 -11 53 -15z m44
-6 c-3 -3 -12 -4 -19 -1 -8 3 -5 6 6 6 11 1 17 -2 13 -5z m-86 -47 c127 -87
230 -149 235 -144 4 3 -37 34 -90 68 -53 34 -95 64 -92 67 8 8 180 -94 272
-160 46 -34 82 -63 80 -66 -8 -7 -110 30 -131 48 -11 10 -25 16 -31 13 -13 -5
-217 126 -282 180 -60 50 -38 47 39 -6z m-626 13 c3 -5 4 -14 0 -20 -8 -13
-35 -1 -35 16 0 16 26 19 35 4z m2791 -77 c-4 -4 -36 73 -35 85 0 4 9 -13 20
-37 11 -24 18 -46 15 -48z m-2816 26 c0 -5 -7 -9 -15 -9 -9 0 -15 9 -15 21 0
18 2 19 15 9 8 -7 15 -16 15 -21z m118 15 c27 -19 26 -57 -1 -62 -23 -5 -67
35 -67 60 0 23 37 24 68 2z m-215 -14 c9 0 17 -7 17 -15 0 -10 -11 -15 -35
-15 -19 0 -35 2 -35 4 0 2 -3 12 -7 22 -5 14 -2 16 18 11 13 -4 32 -7 42 -7z
m1229 -5 c0 -5 -5 -11 -11 -13 -6 -2 -11 4 -11 13 0 9 5 15 11 13 6 -2 11 -8
11 -13z m-804 -11 c48 -33 13 -82 -37 -51 -30 18 -39 46 -19 58 19 12 31 11
56 -7z m125 -29 c-24 -19 -53 -19 -53 0 0 21 31 35 53 23 18 -9 18 -10 0 -23z
m446 3 c80 -45 181 -120 175 -130 -3 -4 1 -8 9 -8 8 0 22 -9 32 -20 15 -17 16
-20 2 -20 -8 0 -26 13 -39 29 -14 16 -76 63 -139 105 -119 79 -136 98 -40 44z
m2011 1 l-35 -30 -17 22 c-28 33 -22 39 35 39 l52 -1 -35 -30z m74 13 c-11 -9
-36 -29 -55 -44 -19 -15 -29 -27 -22 -28 7 0 37 20 68 45 30 25 55 43 55 40 0
-13 -56 -75 -67 -75 -6 0 -19 -7 -28 -16 -15 -16 -18 -15 -37 3 l-20 21 47 36
c27 20 55 36 64 36 13 -1 12 -4 -5 -18z m76 -12 c-12 -16 -24 -30 -28 -30 -4
0 -20 -12 -35 -26 -47 -43 -40 -21 11 34 52 57 88 72 52 22z m61 13 c-14 -27
-91 -93 -107 -93 -18 0 85 107 104 109 9 1 10 -4 3 -16z m41 -10 c-17 -30 -90
-94 -96 -84 -6 9 95 113 102 106 2 -2 -1 -12 -6 -22z m48 21 c0 -12 -44 -79
-60 -91 -18 -15 -40 -17 -40 -3 0 6 7 10 15 10 8 0 26 20 41 45 23 39 44 58
44 39z m24 -35 c-30 -64 -39 -79 -46 -79 -12 0 -9 18 7 45 8 14 22 37 31 51
22 36 28 24 8 -17z m31 -22 c-26 -60 -50 -78 -35 -28 14 50 46 98 57 87 2 -2
-8 -28 -22 -59z m65 47 c0 -21 -38 -84 -51 -84 -13 0 -12 4 13 55 22 46 38 58
38 29z m50 -9 c-21 -56 -42 -87 -51 -78 -14 14 26 103 45 103 12 0 14 -5 6
-25z m50 11 c0 -25 -21 -70 -40 -88 -29 -27 -31 -22 -11 25 10 23 21 50 24 60
8 21 27 23 27 3z m39 -18 c-17 -61 -40 -101 -52 -89 -7 7 -7 14 0 23 6 7 17
32 24 56 6 23 18 42 25 42 9 0 10 -8 3 -32z m51 2 c0 -26 -33 -89 -46 -90 -8
0 -7 15 3 48 8 26 17 53 19 60 5 19 24 5 24 -18z m-2445 -75 c44 -33 107 -75
140 -93 33 -19 51 -31 40 -27 -11 4 -35 11 -52 17 -33 9 -255 171 -262 190 -5
13 37 -13 134 -87z m2495 90 c0 -3 -7 -22 -15 -42 -18 -43 -19 -57 -3 -47 7 4
8 3 4 -4 -4 -7 -14 -12 -23 -12 -11 0 -14 6 -9 26 4 15 10 39 13 55 3 16 12
29 19 29 8 0 14 -2 14 -5z m37 -27 c-3 -18 -7 -40 -9 -48 -1 -8 3 -14 10 -12
6 1 12 -5 12 -13 0 -22 -16 -18 -33 9 -20 30 -12 96 11 96 11 0 13 -8 9 -32z
m53 15 c0 -34 -12 -63 -26 -63 -16 0 -17 5 -8 49 7 33 34 44 34 14z m48 -11
c4 -27 -24 -82 -43 -82 -12 0 -12 4 1 28 7 15 14 40 14 55 0 33 23 33 28 -1z
m46 12 c9 -25 7 -64 -4 -64 -5 0 -10 -7 -10 -15 0 -8 -5 -15 -11 -15 -6 0 -8
7 -5 16 3 9 6 33 6 55 0 40 13 52 24 23z m54 -24 c8 -33 7 -40 -4 -40 -15 0
-18 6 -28 53 -10 45 20 33 32 -13z m46 32 c2 -4 7 -29 10 -56 4 -33 2 -46 -6
-44 -6 2 -13 11 -14 19 -2 7 -7 31 -13 52 -7 29 -6 37 4 37 8 0 16 -4 19 -8z
m46 -5 c0 -7 9 -30 20 -52 24 -47 24 -46 5 -39 -8 4 -15 12 -15 19 0 7 -6 15
-14 18 -19 7 -27 67 -9 67 7 0 13 -6 13 -13z m55 -17 c18 -36 19 -40 2 -40
-13 0 -37 40 -37 60 0 20 20 9 35 -20z m42 0 c9 -24 9 -30 -2 -30 -7 0 -18 14
-24 30 -7 23 -7 30 2 30 7 0 18 -13 24 -30z m-3983 11 c3 -4 3 -10 0 -13 -7
-8 -54 3 -54 13 0 12 47 12 54 0z m4040 -7 c11 -28 7 -35 -14 -24 -23 12 -27
40 -6 40 8 0 17 -7 20 -16z m36 12 c0 -2 3 -11 6 -20 9 -23 -13 -20 -26 4 -9
16 -8 20 5 20 8 0 15 -2 15 -4z m50 -22 c6 -14 10 -31 10 -37 -1 -16 -39 34
-40 51 0 22 20 13 30 -14z m43 -8 c10 -29 3 -46 -12 -30 -5 5 -11 22 -15 37
-9 38 14 32 27 -7z m47 4 c12 -29 15 -30 78 -30 73 0 74 -14 1 -23 -53 -7 -80
7 -104 54 -13 24 -13 29 -1 29 7 0 19 -13 26 -30z m48 11 c3 -8 -1 -12 -9 -9
-7 2 -15 10 -17 17 -3 8 1 12 9 9 7 -2 15 -10 17 -17z m152 -11 c0 -5 -9 -10
-21 -10 -11 0 -17 5 -14 10 3 6 13 10 21 10 8 0 14 -4 14 -10z m-4200 -11 c0
-14 -21 -21 -46 -15 -14 4 -23 10 -20 14 6 10 66 11 66 1z m4533 -20 c-10 -17
-53 -64 -95 -104 -43 -40 -82 -85 -88 -99 -17 -47 -90 -61 -90 -18 0 11 24 33
63 59 34 23 94 75 132 116 75 80 110 100 78 46z m-4255 9 c16 -16 -3 -38 -34
-38 -26 0 -38 14 -30 35 6 18 47 20 64 3z m3612 -8 c0 -5 -4 -10 -9 -10 -6 0
-13 5 -16 10 -3 6 1 10 9 10 9 0 16 -4 16 -10z m-1445 -31 c9 -27 -2 -39 -35
-39 -33 0 -44 12 -35 39 11 34 59 34 70 0z m1325 9 c0 -16 -3 -19 -11 -11 -6
6 -8 16 -5 22 11 17 16 13 16 -11z m-3626 -8 c16 -16 -26 -11 -54 6 l-25 15
35 -6 c19 -3 39 -10 44 -15z m298 -3 c12 -19 -3 -35 -38 -42 -19 -3 -39 -3
-44 0 -16 10 -11 43 8 54 19 11 63 4 74 -12z m2648 3 c0 -5 -7 -10 -15 -10 -8
0 -15 5 -15 10 0 6 7 10 15 10 8 0 15 -4 15 -10z m480 0 c0 -5 -4 -10 -10 -10
-5 0 -10 5 -10 10 0 6 5 10 10 10 6 0 10 -4 10 -10z m-3280 -30 c0 -5 -19 -9
-42 -9 l-43 2 35 7 c19 4 38 8 43 9 4 0 7 -3 7 -9z m2047 -102 c0 -62 6 -126
12 -142 11 -26 8 -32 -36 -83 -45 -51 -123 -148 -177 -218 l-23 -30 -21 41
c-29 57 -52 174 -52 265 l0 77 43 17 c48 19 181 112 223 156 15 16 28 29 29
29 1 0 1 -51 2 -112z m298 17 c-9 -31 -13 -60 -10 -65 3 -6 33 -10 66 -10 l59
0 0 -90 0 -91 -62 3 -63 3 -6 95 c-4 79 -6 86 -9 40 -3 -53 -4 -53 -7 -13 -3
25 4 70 16 109 12 36 22 78 22 93 2 23 2 24 6 3 2 -12 -3 -47 -12 -77z m-2095
50 c26 -31 -9 -62 -55 -51 -51 13 -39 66 15 66 15 0 33 -7 40 -15z m130 -10
c21 -25 -4 -46 -41 -33 -30 10 -39 32 -16 41 23 10 45 7 57 -8z m1770 6 c0
-17 -29 -33 -50 -26 -20 6 -25 16 -13 28 10 10 63 8 63 -2z m-2395 -42 c116
-17 212 -33 215 -36 3 -2 -28 -2 -68 1 -43 3 -70 1 -67 -5 4 -5 16 -10 28 -10
12 -1 15 -3 7 -5 -8 -2 -76 7 -150 21 -74 13 -155 27 -179 30 -50 6 -67 15
-30 15 24 1 24 1 4 16 -19 15 -19 15 5 10 14 -3 119 -20 235 -37z m755 21 c8
-4 20 -5 27 -3 16 6 25 -13 18 -37 -5 -15 -15 -20 -45 -20 -42 0 -47 4 -60 50
-8 29 -8 30 18 24 15 -4 34 -10 42 -14z m164 -33 c24 -17 17 -51 -11 -55 -24
-4 -60 39 -48 58 9 14 38 13 59 -3z m1836 -112 c0 -100 -3 -125 -14 -125 -11
0 -15 26 -18 118 -3 64 -3 120 -1 125 2 4 11 7 19 7 11 0 14 -23 14 -125z
m1350 110 c0 -12 -76 -35 -146 -44 -98 -14 -104 -14 -104 4 0 11 12 15 48 16
26 0 70 7 97 14 52 13 105 18 105 10z m-3065 -29 c0 -25 -16 -30 -39 -13 -24
17 -12 39 17 35 14 -2 22 -10 22 -22z m82 -6 c2 0 3 -4 3 -10 0 -18 -49 -11
-60 9 -9 18 -8 19 22 10 18 -5 34 -9 35 -9z m-1452 0 c13 -6 5 -7 -25 -3 -25
3 -47 7 -49 9 -9 8 55 2 74 -6z m93 -17 c-10 -2 -26 -2 -35 0 -10 3 -2 5 17 5
19 0 27 -2 18 -5z m49 -9 c-3 -3 -12 -4 -19 -1 -8 3 -5 6 6 6 11 1 17 -2 13
-5z m430 -57 c10 -11 -24 -8 -172 14 -157 23 -168 25 -161 37 6 9 321 -40 333
-51z m933 53 c12 -8 11 -10 -7 -10 -12 0 -25 5 -28 10 -8 13 15 13 35 0z
m2252 3 c169 -3 305 -10 302 -15 -9 -14 8 -9 27 8 39 35 50 -10 23 -89 -20
-60 -38 -72 -28 -20 4 21 11 40 15 41 5 2 9 17 9 33 0 27 -2 28 -21 17 -29
-18 -116 -98 -106 -98 5 0 24 12 43 26 39 30 54 26 32 -8 -8 -13 -14 -39 -13
-58 2 -26 -4 -42 -24 -63 -34 -37 -79 -60 -99 -51 -10 3 -34 6 -54 5 l-38 -3
0 121 c0 74 -4 121 -10 121 -5 0 -10 -7 -10 -15 0 -13 -37 -15 -270 -15 l-270
0 0 -105 0 -105 -74 0 -73 0 -6 68 c-4 37 -7 100 -7 140 l0 72 173 0 c94 0
310 -3 479 -7z m748 -33 c0 -23 -4 -30 -20 -30 -29 0 -38 30 -15 46 28 21 35
17 35 -16z m-3356 1 c6 -8 -113 -3 -123 5 -2 2 23 4 57 4 33 0 63 -4 66 -9z
m139 -16 c26 -3 47 -11 47 -17 0 -5 -10 -8 -22 -5 -13 3 -40 9 -61 12 -20 4
-40 12 -43 17 -4 6 1 8 12 5 11 -3 40 -8 67 -12z m3137 -6 c0 -5 -9 -9 -20 -9
-22 0 -27 16 -7 23 15 5 27 -1 27 -14z m-3744 -26 c-6 -6 -86 9 -86 17 0 4 20
3 45 -3 25 -6 43 -12 41 -14z m817 6 c51 -1 75 -5 68 -12 -12 -12 -211 2 -211
15 0 6 14 8 33 4 17 -3 67 -6 110 -7z m145 -6 c-10 -2 -28 -2 -40 0 -13 2 -5
4 17 4 22 1 32 -1 23 -4z m1024 -75 c-15 -78 -19 -84 -183 -308 -46 -64 -91
-127 -100 -140 l-16 -25 -36 56 c-66 103 -109 299 -86 390 7 27 16 49 20 49 4
0 10 -19 13 -42 4 -24 28 -97 55 -163 38 -93 46 -123 37 -134 -8 -11 -8 -13 1
-7 7 4 34 35 59 69 26 34 88 113 138 176 50 62 91 116 91 120 0 7 15 31 19 31
1 0 -4 -33 -12 -72z m1991 65 c-7 -2 -19 -2 -25 0 -7 3 -2 5 12 5 14 0 19 -2
13 -5z m-1333 -53 c0 -43 -3 -50 -20 -50 -17 0 -20 7 -20 50 0 43 3 50 20 50
17 0 20 -7 20 -50z m70 0 c0 -47 -2 -50 -25 -50 -23 0 -25 3 -25 50 0 47 2 50
25 50 23 0 25 -3 25 -50z m110 0 l0 -50 -40 0 -40 0 0 50 0 50 40 0 40 0 0
-50z m204 44 c11 -4 16 -19 16 -50 0 -44 0 -44 -35 -44 l-35 0 0 50 c0 52 11
61 54 44z m56 -44 c0 -27 -4 -50 -10 -50 -5 0 -10 23 -10 50 0 28 5 50 10 50
6 0 10 -22 10 -50z m40 0 c0 -27 -4 -50 -10 -50 -5 0 -10 23 -10 50 0 28 5 50
10 50 6 0 10 -22 10 -50z m-273 -27 c-2 -16 -4 -5 -4 22 0 28 2 40 4 28 2 -13
2 -35 0 -50z m103 22 l0 -45 -41 0 c-33 0 -40 3 -35 16 3 9 6 29 6 45 0 27 3
29 35 29 35 0 35 0 35 -45z m-2779 19 c66 -15 69 -17 69 -45 0 -26 -3 -29 -20
-24 -10 3 -47 12 -82 19 -57 11 -63 15 -66 39 -4 32 2 33 99 11z m2038 -44 c1
-13 0 -13 -9 0 -5 8 -9 26 -9 40 l1 25 8 -25 c4 -14 8 -32 9 -40z m1658 36
c-30 -13 -254 -14 -266 -1 -7 7 40 10 139 10 100 0 142 -3 127 -9z m223 -1
c-14 -8 -29 -14 -35 -14 -5 0 1 6 15 14 14 8 30 14 35 14 6 0 -1 -6 -15 -14z
m-1970 1 c0 -2 -8 -10 -17 -17 -16 -13 -17 -12 -4 4 13 16 21 21 21 13z m1848
-53 c-74 -34 -78 -38 -78 -68 0 -18 -7 -38 -15 -45 -13 -11 -15 -6 -15 32 l0
45 83 36 c107 46 125 46 25 0z m-448 -28 c-24 -25 -46 -45 -49 -45 -3 0 15 20
39 45 24 25 46 45 49 45 3 0 -15 -20 -39 -45z m-1124 8 c-13 -14 -147 -16
-159 -3 -9 10 -8 11 8 7 11 -3 49 -2 85 2 67 7 78 6 66 -6z m-2203 -13 c35 0
47 -4 47 -15 0 -8 -4 -15 -10 -15 -5 0 -10 5 -10 10 0 7 -6 8 -17 2 -10 -6
-29 -6 -47 -1 -17 5 -36 9 -42 9 -14 0 -24 -56 -17 -93 8 -43 30 -32 41 21
l10 47 1 -55 c1 -37 4 -50 10 -41 5 8 8 28 6 45 -1 17 0 21 2 9 2 -13 8 -23
13 -23 5 0 22 -12 39 -26 28 -24 31 -31 31 -86 l0 -60 -32 5 c-18 4 -61 9 -95
13 -73 8 -68 -7 -56 168 l6 98 36 -6 c20 -3 57 -6 84 -6z m2517 -20 c0 -23 -4
-30 -20 -30 -16 0 -20 7 -20 30 0 23 4 30 20 30 16 0 20 -7 20 -30z m330 0 l0
-30 -155 0 -155 0 0 23 c0 13 3 27 7 30 3 4 73 7 155 7 l148 0 0 -30z m40 -6
c0 -13 -4 -24 -10 -24 -5 0 -10 14 -10 31 0 17 4 28 10 24 6 -3 10 -17 10 -31z
m-1532 -119 c16 -73 35 -127 71 -198 l50 -99 -24 -48 c-14 -27 -29 -51 -34
-54 -17 -11 -106 246 -120 347 -9 71 -3 149 14 177 11 18 17 2 43 -125z
m-1431 73 c-2 -13 -4 -5 -4 17 -1 22 1 32 4 23 2 -10 2 -28 0 -40z m1855 13
c2 -23 -1 -37 -6 -34 -5 4 -6 -2 -2 -13 4 -10 4 -15 0 -12 -3 4 -26 -32 -51
-80 -91 -180 -180 -326 -301 -494 -68 -95 -130 -177 -138 -181 -8 -4 -14 -13
-14 -19 0 -7 -21 -61 -47 -120 -55 -125 -54 -125 -103 10 -43 119 -53 206 -41
356 6 83 6 137 -1 167 -5 24 -7 80 -5 124 4 58 3 72 -4 50 -5 -16 -12 -83 -16
-148 -3 -64 -8 -115 -10 -113 -3 2 -15 46 -28 96 -43 167 -43 107 0 -75 13
-55 26 -147 29 -205 5 -109 31 -214 82 -328 28 -64 28 -62 11 -62 -18 0 -51
37 -75 85 -25 51 -89 250 -98 304 -4 22 -10 38 -14 36 -5 -3 -7 21 -5 52 2 45
1 47 -3 13 l-5 -45 -13 50 c-7 31 -12 41 -13 25 -1 -14 4 -41 9 -60 6 -19 20
-75 30 -125 11 -49 31 -130 45 -179 13 -50 23 -91 21 -93 -8 -9 -69 81 -103
153 l-38 79 1 205 c0 113 4 218 8 235 7 29 7 29 -13 10 -57 -51 -74 -261 -33
-415 30 -114 70 -194 134 -265 29 -33 60 -69 68 -80 15 -19 14 -19 -10 -3 -14
9 -65 41 -114 70 -106 63 -174 121 -192 163 -7 17 -13 23 -14 13 0 -29 17 -64
51 -103 l33 -37 -37 16 c-69 28 -37 5 46 -34 45 -22 93 -46 107 -53 14 -8 43
-22 64 -32 l40 -17 -59 -23 c-37 -15 -76 -42 -105 -71 l-45 -46 50 35 c75 52
131 77 184 84 64 7 72 -9 19 -40 -24 -14 -59 -47 -79 -74 -40 -53 -104 -163
-95 -163 3 0 33 41 66 90 75 112 124 150 191 150 59 0 67 -10 30 -38 -52 -38
-78 -112 -107 -292 -14 -91 -30 -185 -35 -210 -14 -64 -60 -161 -72 -153 -6 3
-7 1 -3 -6 23 -37 -184 -238 -340 -330 -60 -36 -125 -80 -145 -99 -25 -22 -39
-30 -44 -22 -4 6 -9 91 -12 188 -5 150 -2 199 16 322 20 129 159 711 174 726
3 3 13 -8 21 -24 29 -55 35 -44 10 18 -31 76 -31 135 0 209 14 32 46 127 72
211 60 196 91 271 166 398 80 136 129 179 261 231 56 22 103 36 105 31 2 -6
-2 -26 -8 -45 -6 -19 -11 -77 -11 -128 0 -77 5 -111 32 -193 17 -54 45 -128
62 -164 16 -36 29 -71 28 -77 -1 -7 0 -13 2 -13 8 0 97 140 144 225 27 50 79
132 115 183 37 51 90 130 120 177 29 46 54 85 54 85 1 0 4 -18 6 -39z m428 3
c0 -32 -1 -33 -25 -22 -13 6 -24 14 -23 17 2 18 -3 24 -11 13 -7 -11 -15 -11
-45 2 -20 8 -36 18 -36 21 0 3 32 5 70 4 l70 -2 0 -33z m14 -88 c41 -31 82
-96 102 -162 8 -26 25 -115 40 -199 26 -157 61 -311 133 -590 23 -88 53 -214
66 -280 14 -66 47 -187 75 -270 57 -169 75 -251 85 -376 l7 -87 -29 -19 c-42
-30 -113 -65 -113 -55 0 4 30 22 66 40 37 18 64 35 62 37 -3 3 -31 -8 -64 -24
l-59 -29 -7 62 c-17 146 -38 352 -38 366 0 8 27 -33 60 -92 54 -96 60 -113 62
-170 l2 -63 3 55 c3 38 7 50 13 40 8 -13 10 -12 10 2 0 9 -33 81 -74 160 -82
160 -105 217 -62 156 15 -21 29 -38 31 -38 2 0 -12 33 -31 73 -24 52 -46 126
-73 258 -53 248 -135 548 -147 536 -2 -2 23 -129 55 -283 71 -330 105 -526
126 -724 24 -230 38 -557 30 -694 l-7 -126 -41 29 c-23 15 -80 50 -127 76 -47
27 -107 65 -135 85 -90 67 -95 68 -189 5 l-28 -19 7 100 c4 54 22 160 41 234
42 173 109 573 129 770 13 137 30 535 20 485 -2 -11 -11 -81 -20 -155 -42
-355 -124 -910 -135 -910 -3 0 -14 39 -24 88 -9 48 -32 148 -51 222 -19 74
-38 167 -44 205 -6 39 -17 95 -26 125 -8 30 -15 63 -15 74 0 11 25 63 55 115
63 112 96 186 115 256 7 28 30 91 50 140 49 115 107 306 114 370 7 57 8 60
-51 -123 l-37 -114 -27 126 c-15 69 -39 152 -53 183 -17 41 -26 85 -31 150
l-6 92 75 -43 c41 -24 91 -55 110 -70z m-934 -126 c7 -30 35 -112 62 -182 l50
-127 -25 -41 -24 -41 -37 96 c-79 207 -96 324 -65 460 l13 60 6 -85 c4 -47 13
-110 20 -140z m577 74 c8 -14 8 -25 1 -35 -8 -12 -9 -11 -5 2 3 9 1 21 -5 27
-6 6 -12 44 -14 84 l-3 73 8 -65 c4 -36 12 -74 18 -86z m1666 77 l82 -7 -68
-8 c-87 -11 -101 -29 -18 -24 l61 3 0 -32 0 -33 -219 0 c-218 0 -219 0 -225
23 -10 38 -7 47 18 47 26 0 193 67 202 81 3 5 23 -3 45 -18 31 -20 57 -27 122
-32z m-513 34 c0 -11 -406 -14 -645 -5 l-140 5 150 5 c245 10 635 6 635 -5z
m166 -20 c-11 -8 -25 -15 -30 -15 -6 1 0 7 14 15 32 19 40 18 16 0z m-129 -30
c15 -8 35 -15 44 -15 12 0 18 -13 23 -46 8 -65 8 -84 -4 -84 -5 0 -10 11 -10
25 0 34 -20 75 -38 75 -10 0 -13 -8 -10 -30 l5 -30 -368 0 -368 0 -16 30 c-8
16 -30 46 -47 66 l-32 36 396 -6 c321 -5 402 -9 425 -21z m-3211 -622 c-3
-346 -5 -791 -5 -990 l-1 -363 -37 0 -36 0 4 452 c3 249 2 390 -2 313 -3 -77
-5 126 -4 450 2 633 0 596 55 718 11 26 23 47 26 47 3 0 3 -282 0 -627z m1994
447 c0 -54 -140 -289 -310 -520 -100 -136 -133 -187 -128 -199 7 -19 303 416
424 624 30 51 30 38 -1 -66 -52 -171 -44 -255 31 -338 24 -27 53 -51 64 -54
19 -5 19 -3 -4 24 -24 29 -43 85 -32 96 3 4 6 -2 6 -12 0 -52 84 -124 121
-104 10 5 20 9 23 9 12 0 -59 -185 -93 -242 -43 -70 -72 -83 -117 -53 l-25 16
41 50 c52 62 31 66 -34 6 -27 -26 -46 -52 -46 -65 0 -16 -8 -23 -36 -28 -39
-7 -124 2 -136 14 -9 9 31 67 112 162 26 30 50 62 54 70 12 22 -160 -159 -187
-197 -21 -31 -37 -42 -37 -25 0 4 -38 6 -86 4 l-85 -4 26 44 26 43 -25 -27
c-14 -16 -29 -34 -33 -42 -9 -15 -93 -33 -93 -19 0 4 22 47 49 96 62 110 50
104 -25 -13 -53 -83 -84 -111 -84 -76 0 20 56 151 89 210 16 28 85 128 153
223 68 95 175 263 238 373 l115 201 22 -73 c13 -40 23 -89 23 -108z m60 60 c6
-11 8 -20 6 -20 -3 0 -10 9 -16 20 -6 11 -8 20 -6 20 3 0 10 -9 16 -20z m1690
0 c0 -6 -87 -10 -225 -10 -173 0 -225 3 -225 13 0 9 50 11 225 9 136 -2 225
-7 225 -12z m-1639 -104 c5 3 23 29 39 57 16 29 30 48 30 42 0 -5 -13 -32 -29
-59 l-29 -50 29 -58 c16 -32 27 -58 24 -58 -2 0 -17 23 -31 52 l-26 52 -30
-35 c-29 -33 -29 -33 -9 -2 12 17 21 34 21 37 0 4 -16 30 -35 59 -19 28 -35
56 -35 62 0 5 16 -16 36 -48 20 -31 40 -55 45 -51z m1119 74 c0 -6 -127 -10
-360 -10 -233 0 -360 4 -360 10 0 6 127 10 360 10 233 0 360 -4 360 -10z
m-1140 -20 c6 -11 8 -20 6 -20 -3 0 -10 9 -16 20 -6 11 -8 20 -6 20 3 0 10 -9
16 -20z m500 -7 c0 -12 -33 -43 -46 -43 -24 0 -21 25 5 37 31 14 41 15 41 6z
m968 -3 c131 0 193 -3 186 -10 -6 -6 -94 -11 -210 -13 -166 -2 -204 1 -219 13
-18 15 -18 14 -1 -12 18 -27 18 -28 -14 -68 -34 -43 -50 -48 -29 -8 11 22 11
22 -7 7 -35 -30 -84 -50 -106 -43 -19 6 -17 8 17 19 39 14 105 70 105 90 0 22
25 36 54 31 16 -3 117 -6 224 -6z m632 -106 c-14 -6 -36 -14 -51 -17 -24 -6
-25 -5 -24 43 1 63 15 79 15 17 0 -34 4 -47 14 -47 8 0 17 4 21 10 3 5 12 7
20 3 12 -4 15 6 17 53 l1 59 6 -55 c6 -52 4 -56 -19 -66z m-1556 81 c-18 -28
-52 -50 -61 -41 -4 3 1 14 10 24 10 10 17 24 17 30 0 7 11 12 25 12 25 0 25
-1 9 -25z m62 -3 c-8 -16 -22 -34 -30 -41 -9 -8 -16 -20 -16 -27 0 -15 -26
-19 -34 -5 -10 15 54 101 75 101 18 0 18 -2 5 -28z m54 10 c0 -25 -48 -92 -65
-92 -19 0 -19 14 -1 29 8 7 22 27 31 46 17 38 35 46 35 17z m60 8 c0 -37 -52
-112 -67 -96 -10 10 39 106 54 106 7 0 13 -5 13 -10z m47 -20 c-7 -34 -35 -80
-48 -80 -12 0 -12 5 8 61 20 55 50 69 40 19z m53 20 c0 -23 -33 -90 -44 -90
-9 0 -9 13 3 50 9 27 22 50 29 50 6 0 12 -4 12 -10z m40 -16 c0 -32 -29 -84
-47 -84 -16 0 -16 2 2 36 8 16 15 36 15 45 0 9 3 19 7 22 13 14 23 6 23 -19z
m60 0 c0 -32 -30 -84 -48 -84 -8 0 -11 6 -8 13 3 6 11 31 18 55 13 46 38 57
38 16z m56 1 c-11 -42 -24 -73 -36 -80 -17 -11 -22 0 -11 26 5 13 12 36 15 52
4 15 13 27 22 27 12 0 15 -6 10 -25z m44 6 c0 -26 -21 -85 -34 -93 -19 -13
-25 2 -10 30 7 15 14 36 14 48 0 11 3 24 7 27 12 13 23 7 23 -12z m42 -22 c-2
-19 -11 -41 -19 -49 -14 -13 -15 -12 -9 10 3 14 6 38 6 53 0 19 4 27 13 24 7
-2 11 -17 9 -38z m48 26 c0 -8 -7 -15 -15 -15 -9 0 -12 6 -9 15 4 8 10 15 15
15 5 0 9 -7 9 -15z m30 -5 c0 -11 -4 -20 -9 -20 -5 0 -7 9 -4 20 3 11 7 20 9
20 2 0 4 -9 4 -20z m947 -42 c-2 -13 -4 -3 -4 22 0 25 2 35 4 23 2 -13 2 -33
0 -45z m-17 7 c0 -25 -4 -45 -10 -45 -5 0 -10 20 -10 45 0 25 5 45 10 45 6 0
10 -20 10 -45z m-3964 19 l31 -4 6 -218 c4 -119 7 -378 7 -575 0 -236 3 -356
10 -352 6 4 10 176 10 483 l1 477 37 43 37 43 0 -779 0 -779 -120 -12 c-66 -7
-122 -15 -124 -17 -2 -2 63 -4 146 -4 l151 0 4 -29 4 -30 -70 -6 c-79 -8 -84
-8 -208 1 l-88 6 0 792 c0 436 3 834 7 885 l6 92 61 -6 c34 -3 75 -8 92 -11z
m3896 -61 c2 -27 -1 -43 -7 -43 -13 0 -20 85 -8 103 9 14 10 8 15 -60z m-731
20 c-41 -55 -48 -63 -59 -63 -7 0 3 20 20 45 18 25 38 45 46 45 10 0 8 -7 -7
-27z m59 15 c0 -19 -44 -78 -58 -78 -16 0 -15 2 17 53 23 37 41 48 41 25z m86
-44 c-4 -18 -11 -34 -16 -34 -13 0 -13 32 1 67 14 35 23 15 15 -33z m61 7 c9
-44 8 -48 -9 -43 -14 3 -18 14 -18 48 0 59 15 56 27 -5z m63 -2 c0 -27 -4 -39
-15 -39 -20 0 -32 69 -14 80 21 13 29 2 29 -41z m51 10 c3 -19 11 -44 18 -56
6 -13 9 -23 5 -23 -3 0 -17 10 -30 23 -17 15 -24 33 -24 60 0 49 22 45 31 -4z
m59 -14 c7 -30 11 -58 7 -61 -8 -8 -37 63 -37 92 0 43 16 25 30 -31z m-270 38
c0 -22 -26 -73 -37 -73 -17 0 -16 14 2 50 14 27 35 41 35 23z m500 -116 l0
-123 -35 -17 c-20 -9 -40 -17 -45 -17 -6 0 -10 36 -10 83 0 78 2 85 29 111
l28 27 -5 -78 c-6 -101 -22 -119 -23 -28 -1 79 -6 70 -12 -22 l-3 -62 28 15
c28 14 28 16 28 110 l0 95 -37 -25 c-20 -14 -40 -23 -45 -20 -4 3 -8 -67 -8
-155 0 -138 2 -160 15 -155 8 4 19 20 24 38 7 24 9 26 10 9 1 -26 4 -27 32
-13 14 8 19 7 19 -3 0 -8 -24 -23 -54 -34 -47 -17 -56 -18 -60 -6 -4 8 -6 84
-6 168 l0 153 53 27 c28 15 56 31 62 36 5 5 10 9 12 9 2 0 3 -55 3 -123z
m-1375 93 c3 -5 1 -10 -4 -10 -6 0 -11 5 -11 10 0 6 2 10 4 10 3 0 8 -4 11
-10z m890 -71 c10 -15 -1 -23 -20 -15 -9 3 -13 10 -10 16 8 13 22 13 30 -1z
m177 -4 c0 -5 -5 -11 -11 -13 -6 -2 -11 4 -11 13 0 9 5 15 11 13 6 -2 11 -8
11 -13z m-342 -6 c0 -7 -9 -9 -22 -6 -12 4 -28 1 -35 -5 -9 -7 -17 -7 -26 0
-8 7 -18 7 -27 2 -19 -12 -30 -12 -30 -1 0 11 22 15 93 19 31 2 47 -1 47 -9z
m50 1 c0 -5 -7 -10 -15 -10 -8 0 -15 5 -15 10 0 6 7 10 15 10 8 0 15 -4 15
-10z m55 0 c-3 -5 -13 -10 -21 -10 -8 0 -14 5 -14 10 0 6 9 10 21 10 11 0 17
-4 14 -10z m135 0 c0 -5 -9 -10 -20 -10 -11 0 -20 5 -20 10 0 6 9 10 20 10 11
0 20 -4 20 -10z m48 -1 c-2 -6 -8 -10 -13 -10 -5 0 -11 4 -13 10 -2 6 4 11 13
11 9 0 15 -5 13 -11z m-1461 -46 c-3 -10 -5 -4 -5 12 0 17 2 24 5 18 2 -7 2
-21 0 -30z m858 2 c6 -2 -86 -4 -202 -4 -121 -1 -213 3 -213 8 0 8 390 4 415
-4z m45 -70 l0 -75 -192 1 c-106 0 -211 4 -233 8 -26 6 40 9 190 10 300 1 292
20 -10 24 l-220 2 223 3 222 2 0 50 c0 28 5 50 10 50 6 0 10 -32 10 -75z m88
43 c-1 -13 -1 -38 0 -55 l2 -33 310 0 310 0 -1 -197 c0 -120 -4 -190 -9 -177
-15 37 -107 119 -167 149 -79 40 -180 46 -248 16 -66 -29 -121 -75 -172 -144
l-43 -59 0 136 0 136 315 0 315 0 0 60 0 60 -185 0 -185 0 0 -45 0 -45 -114 0
c-63 0 -121 -3 -130 -6 -14 -5 -16 8 -16 110 0 66 4 116 9 116 6 0 9 -10 9
-22z m947 12 c-11 -5 -27 -9 -35 -9 -9 0 -8 4 5 9 11 5 27 9 35 9 9 0 8 -4 -5
-9z m-1082 -39 c9 -9 -40 -11 -197 -9 -136 2 -211 7 -213 14 -5 15 394 11 410
-5z m747 3 c0 -17 -26 -21 -200 -35 -159 -12 -390 -5 -390 12 0 5 42 9 94 9
90 0 138 14 79 23 -16 2 72 4 194 3 160 -1 223 -4 223 -12z m-3233 -39 c-17
-15 -22 -27 -16 -36 5 -9 1 -22 -14 -37 -24 -26 -76 -56 -83 -49 -3 2 9 10 25
16 16 7 39 23 52 37 27 29 14 32 -15 4 -12 -10 -38 -26 -58 -34 -32 -14 -37
-14 -42 -1 -3 8 0 15 7 15 23 0 122 52 109 57 -10 4 -4 16 19 40 21 20 35 29
38 22 2 -7 -8 -22 -22 -34z m3470 -87 c-2 -18 -4 -4 -4 32 0 36 2 50 4 33 2
-18 2 -48 0 -65z m-3365 24 c26 -13 87 -28 135 -35 69 -9 80 -13 48 -15 -76
-7 -245 43 -245 71 0 5 3 7 8 5 4 -2 28 -14 54 -26z m3465 -159 c-2 -37 -3 -9
-3 62 0 72 1 102 3 68 2 -34 2 -93 0 -130z m-3567 137 c-21 -30 -145 -98 -157
-86 -10 10 8 21 53 34 22 7 58 27 80 46 48 43 51 44 24 6z m2980 22 c0 -4 -9
-8 -20 -8 -11 0 -20 4 -20 8 0 4 9 8 20 8 11 0 20 -4 20 -8z m70 -27 l0 -35
65 0 65 0 0 29 c0 48 18 45 22 -4 l3 -45 -87 0 c-83 0 -88 1 -93 23 -8 34 -2
67 12 67 8 0 13 -13 13 -35z m-2829 -45 c44 -4 83 -10 86 -14 8 -8 1 -8 -96 4
-46 6 -101 20 -122 30 -57 30 -55 40 2 13 31 -15 81 -28 130 -33z m2759 25 c0
-25 -23 -35 -35 -15 -3 6 1 7 9 4 11 -4 16 0 16 11 0 10 -6 15 -12 12 -7 -2
-22 -1 -33 4 -15 6 -11 8 18 8 33 1 37 -2 37 -24z m-2885 -66 c36 -39 63 -74
60 -77 -4 -4 -38 26 -75 66 -38 39 -71 72 -75 72 -4 0 21 -30 54 -67 62 -67
76 -101 20 -47 -50 47 -91 103 -84 114 13 21 35 8 100 -61z m2193 64 c-38 -2
-98 -2 -135 0 -38 2 -7 3 67 3 74 0 105 -1 68 -3z m220 -20 c-26 -2 -71 -2
-100 0 -29 2 -8 3 47 3 55 0 79 -1 53 -3z m-2432 -121 c-4 -4 -30 17 -57 46
-28 28 -53 52 -57 52 -3 0 15 -22 41 -48 l48 -48 -40 0 c-22 0 -38 3 -36 6 1
3 -10 21 -26 40 -16 19 -29 30 -29 24 0 -6 11 -21 25 -34 17 -16 22 -27 15
-34 -7 -7 -14 -6 -22 3 -11 11 -10 12 2 6 8 -4 2 7 -15 25 -16 18 -25 34 -20
36 6 2 24 13 40 23 l30 19 54 -54 c29 -30 50 -58 47 -62z m69 63 c33 -29 56
-57 52 -61 -4 -5 -36 20 -70 54 -76 76 -64 81 18 7z m65 11 c19 -1 41 -5 48
-9 7 -5 12 -4 12 2 0 6 5 11 10 11 6 0 10 -10 10 -21 0 -21 -1 -21 -26 -4 -14
9 -28 15 -30 12 -3 -2 7 -12 20 -21 15 -9 23 -22 20 -30 -4 -10 -15 -5 -39 20
-19 19 -38 34 -42 34 -4 0 8 -16 27 -35 22 -22 29 -35 19 -35 -8 0 -35 21 -59
46 -28 29 -37 44 -25 39 11 -4 36 -8 55 -9z m2343 -158 c12 -309 9 -495 -9
-529 -23 -45 -46 -205 -39 -266 l6 -53 -75 0 -76 0 -1 83 c0 45 -3 76 -6 70
-6 -17 -18 -16 -37 2 -14 14 -76 190 -76 215 0 6 46 10 116 10 87 0 115 3 112
12 -3 9 -34 12 -115 9 -73 -2 -113 1 -117 8 -5 8 26 11 105 11 98 0 110 2 99
15 -7 8 -25 15 -41 15 l-29 0 0 133 c0 74 -3 202 -7 285 l-6 152 95 0 95 0 6
-172z m937 -101 c0 -151 3 -369 7 -485 l6 -212 -103 0 -102 0 4 93 c2 50 8 99
13 107 5 8 8 162 6 360 l-3 345 79 32 c43 18 81 32 86 33 4 0 7 -123 7 -273z
m-3581 230 c17 -19 19 -26 9 -35 -10 -7 -21 -4 -43 14 -25 20 -28 26 -15 34
21 14 24 13 49 -13z m3136 -51 c72 -34 148 -104 179 -164 9 -17 16 -53 15 -79
l0 -48 -18 50 c-23 68 -53 116 -102 160 -158 142 -371 83 -471 -131 -34 -73
-65 -89 -53 -28 9 48 92 160 153 207 101 77 187 86 297 33z m-777 17 c-32 -2
-84 -2 -115 0 -32 2 -6 3 57 3 63 0 89 -1 58 -3z m-2397 -61 c-7 -2 -18 1 -23
6 -8 8 -4 9 13 5 13 -4 18 -8 10 -11z m44 8 c3 -5 -1 -10 -10 -10 -9 0 -13 5
-10 10 3 6 8 10 10 10 2 0 7 -4 10 -10z m2370 1 c32 -7 19 -9 -62 -10 -63 -1
-103 3 -103 9 0 12 108 12 165 1z m-2312 -8 c-7 -2 -21 -2 -30 0 -10 3 -4 5
12 5 17 0 24 -2 18 -5z m65 0 c-10 -2 -26 -2 -35 0 -10 3 -2 5 17 5 19 0 27
-2 18 -5z m80 0 c-10 -2 -28 -2 -40 0 -13 2 -5 4 17 4 22 1 32 -1 23 -4z m54
-5 c-9 -9 -15 -9 -24 0 -9 9 -7 12 12 12 19 0 21 -3 12 -12z m66 5 c-10 -2
-26 -2 -35 0 -10 3 -2 5 17 5 19 0 27 -2 18 -5z m2072 -33 c0 -6 -37 -10 -90
-10 -53 0 -90 4 -90 10 0 6 37 10 90 10 53 0 90 -4 90 -10z m474 -360 c-5
-142 -9 -189 -17 -173 -5 12 -27 29 -49 38 -36 14 -39 18 -37 53 3 52 -7 65
-47 60 -19 -2 -34 0 -34 4 0 4 15 8 33 8 l32 0 0 83 c0 69 4 91 27 137 15 30
42 73 60 95 l33 39 3 -74 c2 -41 0 -163 -4 -270z m-2686 310 l134 0 -7 -67
c-8 -78 -56 -281 -84 -351 -11 -27 -27 -86 -37 -133 -20 -100 -30 -114 -73
-104 -35 7 -37 12 -46 127 -6 80 3 118 30 118 25 0 25 -17 -1 -55 -14 -21 -23
-39 -22 -41 8 -8 69 59 64 71 -3 8 4 13 20 13 13 0 24 -5 24 -10 0 -5 -4 -6
-10 -3 -6 4 -10 -9 -9 -32 l1 -38 9 32 c5 18 13 34 18 37 4 3 6 17 4 30 -4 21
-8 23 -23 14 -20 -13 -48 -5 -56 15 -10 26 14 67 40 67 23 0 41 -23 31 -40 -3
-5 -1 -11 4 -14 16 -11 22 11 10 38 -10 20 -19 26 -45 26 -35 0 -54 -21 -54
-59 0 -12 -5 -21 -10 -21 -6 0 -19 -14 -29 -31 -11 -18 -22 -26 -25 -20 -4 6
-13 11 -19 11 -8 0 -7 -3 2 -9 10 -6 15 -37 17 -107 3 -87 2 -94 -7 -54 -14
58 -29 75 -29 32 0 -29 -8 -37 -32 -33 -4 0 -7 -23 -6 -52 1 -74 0 -77 -22
-77 -17 0 -20 7 -20 39 0 25 5 41 15 45 16 6 21 66 6 66 -14 0 27 133 45 147
8 6 11 14 6 17 -5 3 -12 15 -15 26 -4 16 3 25 34 40 47 24 49 35 9 44 -39 7
-48 32 -22 57 19 17 21 49 3 49 -5 0 -41 -22 -60 -36 -2 -2 2 -11 10 -20 12
-14 11 -16 -6 -13 -19 4 -20 14 -23 138 l-3 134 62 -7 c34 -3 123 -6 197 -6z
m2082 6 c0 -2 -7 -7 -16 -10 -8 -3 -12 -2 -9 4 6 10 25 14 25 6z m53 -3 c-7
-2 -21 -2 -30 0 -10 3 -4 5 12 5 17 0 24 -2 18 -5z m77 -148 c0 -85 -4 -155
-8 -155 -4 0 -6 59 -4 130 l4 130 -70 0 c-41 0 -74 5 -78 11 -5 8 15 10 70 7
69 -3 75 -2 70 14 -3 10 -1 18 5 18 7 0 11 -52 11 -155z m750 -267 l-5 -413
-3 400 c-2 356 0 425 10 425 2 0 1 -186 -2 -412z m49 368 c20 -32 21 -47 21
-300 l0 -267 50 7 c41 5 50 4 50 -9 0 -9 -14 -17 -37 -21 -76 -14 -73 -9 -73
-102 0 -77 -2 -84 -20 -84 -20 0 -20 7 -20 358 l0 359 23 11 c20 10 20 11 2 9
-16 -2 -21 5 -23 36 -2 20 -1 37 2 37 2 0 14 -15 25 -34z m-829 -10 c0 -2 -15
-6 -34 -8 -19 -2 -32 0 -30 4 5 8 64 12 64 4z m-90 -48 c0 -49 -5 -47 -14 5
-4 23 -3 37 4 37 5 0 10 -19 10 -42z m783 25 l-62 -4 -4 -77 -3 -77 -2 83 -2
82 68 -2 67 -2 -62 -3z m-695 -96 l-2 -92 -3 83 c-4 76 -5 82 -26 83 -12 1
-26 1 -30 0 -5 -1 -6 2 -3 7 3 5 19 9 36 10 l30 1 -2 -92z m735 66 c-13 -2
-35 -2 -50 0 -16 2 -5 4 22 4 28 0 40 -2 28 -4z m-760 -20 c-7 -2 -19 -2 -25
0 -7 3 -2 5 12 5 14 0 19 -2 13 -5z m712 -3 c3 -5 2 -10 -4 -10 -5 0 -13 5
-16 10 -3 6 -2 10 4 10 5 0 13 -4 16 -10z m-748 -82 c-2 -13 -4 -3 -4 22 0 25
2 35 4 23 2 -13 2 -33 0 -45z m30 10 c-2 -13 -4 -5 -4 17 -1 22 1 32 4 23 2
-10 2 -28 0 -40z m743 48 c0 -2 -11 -6 -25 -8 -14 -3 -25 -1 -25 3 0 5 11 9
25 9 14 0 25 -2 25 -4z m37 -2 c-3 -3 -12 -4 -19 -1 -8 3 -5 6 6 6 11 1 17 -2
13 -5z m-387 -84 c0 -49 -3 -58 -20 -63 -19 -5 -20 0 -20 63 0 63 1 68 20 63
17 -5 20 -14 20 -63z m340 48 c0 -4 -9 -8 -20 -8 -11 0 -20 4 -20 8 0 4 9 8
20 8 11 0 20 -4 20 -8z m256 -14 c-3 -9 -6 -22 -6 -30 0 -10 -12 -14 -40 -14
-38 0 -40 2 -40 30 0 29 2 30 46 30 38 0 45 -3 40 -16z m-2318 -43 c10 -6 7
-12 -11 -24 -13 -8 -40 -47 -61 -86 -33 -64 -38 -84 -52 -208 -24 -220 -60
-349 -117 -410 -20 -22 -84 -50 -93 -40 -3 3 9 28 27 56 58 95 85 193 124 446
23 153 52 214 120 256 33 21 44 23 63 10z m1332 -1 c0 -5 -10 -10 -22 -9 -22
0 -22 1 -3 9 11 5 21 9 23 9 1 1 2 -3 2 -9z m-2358 -41 c23 -17 27 -24 16 -30
-22 -14 -41 -11 -34 7 3 8 2 12 -4 9 -6 -3 -10 -13 -10 -21 0 -8 -4 -14 -10
-14 -5 0 -10 16 -10 35 0 41 10 43 52 14z m1292 -15 c39 -20 80 -44 90 -53 23
-20 60 -100 51 -109 -4 -4 -26 14 -49 39 -38 43 -122 97 -133 86 -2 -3 14 -15
36 -28 31 -17 47 -37 69 -83 17 -34 25 -63 19 -65 -5 -2 -31 19 -56 47 -39 43
-112 92 -137 92 -15 0 22 -33 57 -51 35 -17 99 -102 87 -115 -3 -2 -20 7 -39
21 -52 37 -129 77 -142 72 -7 -2 12 -18 41 -36 77 -48 63 -68 -27 -36 -22 8
-41 10 -41 5 0 -15 88 -43 122 -37 18 2 44 0 58 -5 77 -29 -113 -39 -195 -10
-71 25 -155 88 -155 117 0 34 27 105 55 141 27 36 43 40 149 43 62 1 78 -3
140 -35z m1082 15 c3 -5 -6 -9 -20 -9 -16 0 -26 6 -26 14 0 15 36 11 46 -5z
m964 11 c0 -5 -16 -10 -35 -10 l-35 0 2 -135 3 -135 33 0 c17 0 32 -4 32 -10
0 -17 -67 -12 -74 6 -3 9 -6 78 -6 155 l0 139 40 0 c22 0 40 -4 40 -10z m-7
-37 c-7 -2 -21 -2 -30 0 -10 3 -4 5 12 5 17 0 24 -2 18 -5z m-933 -23 c0 -5
-13 -10 -30 -10 -16 0 -30 5 -30 10 0 6 14 10 30 10 17 0 30 -4 30 -10z m60 0
c0 -5 -9 -10 -19 -10 -11 0 -23 5 -26 10 -4 6 5 10 19 10 14 0 26 -4 26 -10z
m863 3 c-20 -4 -22 -11 -26 -76 l-3 -72 -2 78 -2 77 28 -1 c22 -1 23 -2 5 -6z
m-553 -19 c19 -22 -9 -49 -40 -39 -13 4 -18 10 -13 14 5 3 12 14 16 24 8 21
21 22 37 1z m570 -14 c0 -5 -7 -10 -15 -10 -8 0 -15 5 -15 10 0 6 7 10 15 10
8 0 15 -4 15 -10z m-3355 -20 c4 -12 1 -28 -6 -36 -6 -8 -14 -38 -16 -67 -7
-83 -13 -68 -13 31 0 73 3 92 14 92 8 0 18 -9 21 -20z m3355 -10 c0 -5 -7 -10
-16 -10 -8 0 -12 5 -9 10 3 6 10 10 16 10 5 0 9 -4 9 -10z m-580 -25 c0 -16
-35 -21 -44 -6 -8 12 4 21 26 21 10 0 18 -7 18 -15z m580 -24 c0 -11 -4 -23
-10 -26 -6 -4 -10 5 -10 19 0 14 5 26 10 26 6 0 10 -9 10 -19z m-1678 -75 c21
-33 47 -87 57 -121 37 -118 82 -347 79 -399 l-3 -51 -18 75 c-50 211 -142 489
-178 541 -20 29 -14 46 9 26 9 -6 33 -39 54 -71z m-2 63 c22 -40 6 -51 -23
-14 -26 32 -26 35 -8 35 11 0 25 -9 31 -21z m1175 -5 c23 -9 41 -50 56 -123
14 -71 56 -131 93 -131 20 -1 20 -1 3 -14 -33 -25 -85 4 -87 49 -1 27 -69 195
-69 173 -1 -10 9 -46 20 -80 22 -63 28 -126 14 -148 -11 -18 -28 26 -19 52 3
10 1 25 -5 32 -6 7 -10 33 -9 58 0 28 -6 55 -16 69 -17 25 -22 69 -7 69 5 0
17 -3 26 -6z m-130 -68 c-5 -66 -1 -59 11 19 l8 50 7 -50 c5 -43 6 -45 7 -14
1 20 8 42 16 48 12 10 19 4 41 -32 23 -40 25 -50 16 -88 -10 -42 -40 -79 -65
-79 -6 0 -22 7 -35 16 -17 13 -21 22 -16 43 4 20 3 23 -5 11 -8 -11 -10 -2 -6
35 3 34 3 40 -2 20 -8 -30 -8 -29 -15 14 -8 45 1 68 28 68 11 0 14 -12 10 -61z
m-44 -188 c-2 -10 -10 -18 -17 -18 -19 0 -32 32 -16 38 7 2 10 8 6 13 -3 5 0
42 8 82 l13 72 5 -85 c3 -47 3 -93 1 -102z m-1274 125 c-3 -10 -5 -4 -5 12 0
17 2 24 5 18 2 -7 2 -21 0 -30z m-1426 -26 c-8 -8 -11 -5 -11 9 0 27 14 41 18
19 2 -9 -1 -22 -7 -28z m1036 -14 c-3 -10 -5 -2 -5 17 0 19 2 27 5 18 2 -10 2
-26 0 -35z m-962 -11 c-12 -13 -24 22 -12 37 10 12 13 11 15 -8 2 -13 1 -26
-3 -29z m1078 41 c10 -17 -26 -123 -73 -220 -37 -75 -67 -120 -110 -165 l-60
-63 24 55 c138 315 180 400 197 400 10 0 20 -3 22 -7z m-1020 -60 c-8 -21 22
-43 59 -43 15 0 28 -4 28 -10 0 -6 -27 -10 -60 -10 -57 0 -60 1 -60 25 0 29
20 66 32 59 4 -3 4 -12 1 -21z m3247 17 c0 -6 -6 -13 -13 -16 -8 -3 -14 -10
-14 -17 -1 -18 -31 -138 -36 -143 -2 -3 -12 -2 -21 2 -12 5 -16 20 -16 64 0
75 6 90 39 91 l26 2 -25 5 -25 5 25 8 c37 11 60 10 60 -1z m-1943 -22 c-3 -8
-6 -5 -6 6 -1 11 2 17 5 13 3 -3 4 -12 1 -19z m-1367 -24 c0 -35 -17 -30 -18
6 0 17 4 28 9 25 5 -4 9 -17 9 -31z m160 16 c0 -5 -18 -10 -39 -10 -22 0 -43
5 -46 10 -4 6 12 10 39 10 25 0 46 -4 46 -10z m797 -22 c-3 -7 -5 -2 -5 12 0
14 2 19 5 13 2 -7 2 -19 0 -25z m1463 22 c0 -5 -2 -10 -4 -10 -3 0 -8 5 -11
10 -3 6 -1 10 4 10 6 0 11 -4 11 -10z m332 -2 c34 12 52 7 28 -8 -28 -18 -120
-10 -120 10 0 5 14 3 30 -3 23 -9 38 -8 62 1z m-76 -75 c-11 -11 -19 6 -11 24
8 17 8 17 12 0 3 -10 2 -21 -1 -24z m112 20 c-2 -13 -15 -19 -46 -21 -37 -3
-42 -1 -42 17 0 18 6 21 46 21 38 0 45 -3 42 -17z m-2648 -39 c0 -11 -21 -14
-110 -14 -98 0 -110 2 -110 18 0 15 11 17 110 14 88 -3 110 -6 110 -18z m2490
-4 c0 -11 -4 -20 -10 -20 -5 0 -10 9 -10 20 0 11 5 20 10 20 6 0 10 -9 10 -20z
m280 5 c0 -8 -2 -15 -4 -15 -2 0 -6 7 -10 15 -3 8 -1 15 4 15 6 0 10 -7 10
-15z m669 -77 c0 -56 -3 -76 -9 -62 -7 18 -20 22 -101 28 -52 4 -95 9 -97 11
-3 2 -1 24 2 49 7 44 8 45 49 49 23 2 68 4 100 5 l57 2 -1 -82z m-2708 -67
c-57 -127 -122 -224 -184 -274 -85 -68 -283 -170 -372 -191 -44 -11 -29 -2 58
34 115 48 221 121 322 224 50 50 93 90 98 88 4 -1 8 3 8 8 1 6 2 15 3 20 0 6
6 14 13 18 10 6 33 53 80 161 8 18 16 31 19 28 3 -3 -17 -55 -45 -116z m-741
79 c0 -30 -1 -30 -57 -32 l-58 -2 53 -3 c50 -4 52 -5 52 -33 0 -32 -1 -32
-116 -45 l-51 -5 1 75 1 75 88 0 87 0 0 -30z m2500 -9 c0 -16 -11 -19 -81 -24
-90 -7 -99 -5 -99 24 0 17 8 19 90 19 81 0 90 -2 90 -19z m698 -8 c2 -9 -8
-13 -32 -13 -34 0 -44 8 -29 24 11 11 56 2 61 -11z m-98 -3 c0 -6 -62 -11
-162 -12 l-163 -2 163 -3 163 -4 -6 -32 c-4 -17 -8 -33 -10 -35 -1 -1 -84 -3
-185 -4 -126 -2 -172 -5 -149 -11 18 -5 102 -7 186 -5 125 2 152 1 148 -10 -3
-8 -5 -18 -5 -23 0 -5 -77 -9 -180 -9 -146 0 -180 3 -180 14 0 7 -3 28 -6 45
l-6 31 183 2 184 2 -162 3 c-155 3 -163 5 -163 23 0 11 1 21 3 22 1 0 67 4
147 8 80 3 157 7 173 8 15 1 27 -2 27 -8z m-370 -30 c0 -11 -2 -20 -4 -20 -2
0 -6 9 -9 20 -3 11 -1 20 4 20 5 0 9 -9 9 -20z m-230 -7 c-1 -12 -66 -58 -81
-58 -19 0 -24 46 -7 56 16 11 88 12 88 2z m-120 -28 c0 -20 -5 -25 -25 -25
-20 0 -25 5 -25 25 0 20 5 25 25 25 20 0 25 -5 25 -25z m994 9 l46 -7 0 -66
c0 -36 -4 -70 -8 -76 -4 -5 -23 -18 -44 -27 -20 -9 -39 -26 -43 -37 -5 -16
-12 -19 -43 -14 -68 9 -65 4 -58 106 10 128 9 127 60 127 24 0 64 -3 90 -6z
m-881 -61 c-7 -20 -16 -28 -34 -28 -32 0 -33 36 -1 50 12 5 22 14 22 19 0 6 5
5 11 -1 8 -8 8 -20 2 -40z m-2543 6 l-35 -6 33 -2 c33 -1 37 -8 25 -50 -6 -22
-9 -23 -67 -16 -72 8 -92 18 -52 25 47 8 45 30 -3 30 -23 0 -41 5 -41 10 0 6
17 10 38 11 20 0 55 4 77 8 22 4 45 5 50 2 6 -3 -6 -9 -25 -12z m1327 -11 c-3
-8 -6 -5 -6 6 -1 11 2 17 5 13 3 -3 4 -12 1 -19z m1133 -9 c0 -12 -10 -23 -26
-29 -37 -15 -41 -13 -46 20 -4 25 -1 29 21 32 37 5 51 -1 51 -23z m710 -44 c0
-43 -4 -75 -10 -75 -5 0 -10 13 -10 29 0 36 12 121 16 121 2 0 4 -34 4 -75z
m27 38 c-3 -10 -5 -4 -5 12 0 17 2 24 5 18 2 -7 2 -21 0 -30z m-527 -56 c0
-16 -4 -26 -10 -22 -5 3 -10 23 -10 43 0 28 3 33 10 22 5 -8 10 -28 10 -43z
m-124 -13 c-4 -10 -24 -14 -80 -14 -125 0 -94 38 44 53 27 3 45 -16 36 -39z
m582 14 c-2 -18 -9 -23 -30 -22 -16 0 -97 1 -182 2 -149 2 -154 3 -149 22 5
19 14 20 185 20 l179 0 -3 -22z m-3137 -18 l29 0 0 -95 0 -95 -27 0 c-35 0
-68 47 -77 110 -4 25 -10 56 -13 69 -6 23 -4 24 27 18 18 -4 45 -7 61 -7z
m3084 -21 c4 -6 5 -12 3 -14 -2 -2 -53 -9 -113 -16 -105 -13 -108 -14 -60 -20
28 -4 104 -8 170 -8 175 -2 163 8 157 -119 -2 -59 -6 -108 -7 -110 -2 -2 -226
0 -499 4 l-497 7 3 71 3 70 60 34 c33 18 69 42 81 53 11 10 29 19 40 20 18 0
18 1 -1 9 -14 6 -1 9 45 9 36 1 76 4 90 8 25 6 25 6 7 -15 -11 -11 -16 -25
-13 -31 9 -14 68 5 88 29 19 23 58 27 58 6 0 -8 -4 -18 -10 -21 -18 -11 -10
-25 14 -25 44 0 56 9 49 41 l-5 29 165 0 c107 0 168 -4 172 -11z m-3191 -45
c3 -9 6 -30 6 -48 0 -32 -2 -34 -46 -40 -93 -12 -100 -10 -118 35 -9 23 -14
44 -11 48 4 3 37 9 73 12 37 3 72 7 78 7 7 1 15 -5 18 -14z m-206 -27 c8 -17
10 -33 5 -38 -5 -5 -44 -14 -88 -20 -72 -10 -81 -9 -90 6 -29 50 -42 58 -101
64 -59 5 -59 5 -19 12 22 3 94 6 160 5 l120 -1 13 -28z m3589 -39 c-3 -7 -5
-2 -5 12 0 14 2 19 5 13 2 -7 2 -19 0 -25z m-3533 -151 c16 -66 25 -122 20
-126 -5 -5 -38 -14 -74 -20 -36 -7 -74 -15 -85 -17 -19 -5 -22 3 -34 81 -7 47
-19 108 -26 135 l-13 49 31 5 c118 19 143 22 148 17 3 -3 18 -59 33 -124z
m831 46 c-3 -21 -11 -42 -15 -47 -5 -5 -47 -24 -92 -41 -75 -29 -84 -31 -95
-16 -7 9 -12 21 -13 26 0 7 191 107 219 114 2 1 0 -16 -4 -36z m-535 18 c0 -5
3 -16 6 -24 3 -10 -5 -18 -27 -26 -38 -13 -34 -15 -42 27 -6 31 -6 32 28 32
19 0 35 -4 35 -9z m10 -88 c0 -10 3 -28 6 -40 6 -20 3 -23 -24 -23 -30 0 -42
14 -42 50 0 19 13 28 43 29 10 1 17 -6 17 -16z m294 -19 c12 -30 6 -41 -30
-52 -36 -11 -36 -11 -29 16 6 25 30 52 46 52 4 0 10 -7 13 -16z m213 -8 c-3
-7 -9 -35 -12 -60 l-7 -47 -92 7 c-50 4 -113 10 -141 13 l-50 6 80 23 c44 13
107 34 140 47 71 27 89 30 82 11z m-303 -32 c15 -40 14 -40 -144 -15 -39 6
-41 8 -20 14 80 21 156 21 164 1z m1625 -29 c34 -25 103 -68 154 -96 124 -69
167 -101 162 -119 -2 -8 -7 -37 -11 -63 l-6 -48 -27 24 c-35 32 -96 65 -223
122 -102 45 -110 47 -152 36 -24 -6 -50 -13 -58 -16 -21 -8 -35 132 -16 151
18 16 90 54 104 54 7 0 39 -20 73 -45z m-1734 -5 c28 -7 28 -8 5 -9 -14 -1
-53 -7 -87 -15 l-63 -13 0 24 c0 22 4 23 58 22 31 -1 71 -5 87 -9z m-350 -72
c5 4 5 1 1 -5 -4 -7 -2 -21 3 -32 10 -17 3 -20 -82 -40 -50 -12 -97 -21 -103
-21 -6 0 -14 15 -17 33 -3 17 -8 39 -11 48 -6 12 9 18 81 30 83 15 89 15 104
-2 9 -10 20 -15 24 -11z m225 -98 c15 -15 20 -33 20 -78 l0 -59 -68 -37 c-38
-21 -76 -50 -84 -64 -9 -15 -30 -32 -47 -39 -27 -10 -31 -9 -31 6 0 17 23 39
98 93 59 42 46 46 -22 7 -32 -17 -60 -28 -64 -24 -4 3 -12 32 -17 63 -12 68
-10 67 -140 26 -81 -25 -103 -28 -220 -26 -203 3 -211 8 -75 49 63 19 151 41
195 48 44 7 100 18 125 25 44 12 165 26 263 29 35 1 52 -4 67 -19z m150 -20
c-11 -11 -20 -28 -20 -37 0 -11 -3 -14 -8 -7 -12 17 -44 25 -57 14 -9 -8 -14
-4 -17 14 -5 26 5 30 90 34 l32 2 -20 -20z m227 -12 c-3 -7 -5 -2 -5 12 0 14
2 19 5 13 2 -7 2 -19 0 -25z m-302 -74 l-15 -29 0 27 c0 14 6 28 13 31 18 7
19 3 2 -29z m1893 2 c58 -29 76 -64 49 -94 -9 -10 -20 -29 -26 -42 -9 -22 -10
-20 -11 20 -1 67 -20 29 -20 -41 0 -43 -5 -60 -20 -74 -11 -10 -22 -16 -25
-13 -3 2 -12 40 -21 84 -38 195 -67 220 -62 54 3 -80 1 -95 -13 -98 -12 -2
-20 14 -33 69 -10 40 -20 95 -23 122 l-6 50 80 -5 c58 -4 93 -13 131 -32z
m-2217 -27 c11 -38 10 -89 -2 -89 -5 0 -8 -4 -5 -9 3 -5 3 -23 0 -40 -8 -39
-72 -78 -94 -58 -10 9 -11 9 -5 -2 6 -10 2 -12 -14 -6 -13 4 -28 1 -36 -5 -8
-7 -15 -8 -15 -3 0 17 36 38 62 35 21 -3 32 5 57 42 36 52 38 70 11 89 -11 8
-17 17 -14 20 4 4 1 13 -6 22 -10 12 -8 16 11 24 32 13 42 9 50 -20z m-411
-29 c20 -5 26 -14 28 -42 4 -41 23 -32 -240 -122 l-158 -53 0 39 c0 44 -6 48
-123 76 -37 9 -67 18 -67 21 0 5 238 69 340 91 36 8 176 2 220 -10z m345 10
c3 -5 -7 -16 -23 -24 -15 -8 -41 -33 -57 -55 -21 -31 -34 -41 -54 -41 -51 0
-71 53 -27 70 13 5 28 15 33 24 14 25 115 46 128 26z m922 -12 c-3 -8 -6 -5
-6 6 -1 11 2 17 5 13 3 -3 4 -12 1 -19z m-567 -6 c0 -20 -22 -33 -110 -63 -30
-11 -49 -14 -43 -8 10 10 142 88 151 89 1 0 2 -8 2 -18z m557 -59 c-3 -10 -5
-4 -5 12 0 17 2 24 5 18 2 -7 2 -21 0 -30z m-10 -60 c-3 -10 -5 -4 -5 12 0 17
2 24 5 18 2 -7 2 -21 0 -30z m-1190 -70 l6 -79 -166 -73 c-91 -39 -183 -78
-204 -85 l-38 -13 -16 96 c-10 53 -14 99 -10 102 28 28 400 153 414 139 5 -4
11 -43 14 -87z m-493 47 c6 -6 -12 -19 -45 -35 -66 -30 -119 -42 -119 -27 0 6
-3 17 -6 25 -4 11 10 20 53 35 56 20 98 21 117 2z m1673 -47 c-3 -10 -5 -2 -5
17 0 19 2 27 5 18 2 -10 2 -26 0 -35z m-1869 -20 c2 -14 -7 -28 -26 -42 l-30
-21 -7 27 c-5 22 -2 32 16 46 26 21 43 18 47 -10z m744 -8 c3 -13 1 -22 -3
-19 -9 5 -13 44 -5 44 2 0 6 -11 8 -25z m1115 -42 c-3 -10 -5 -4 -5 12 0 17 2
24 5 18 2 -7 2 -21 0 -30z"/>
        <path d="M3893 5003 c15 -2 37 -2 50 0 12 2 0 4 -28 4 -27 0 -38 -2 -22 -4z"/>
        <path d="M3681 4564 c0 -11 3 -14 6 -6 3 7 2 16 -1 19 -3 4 -6 -2 -5 -13z"/>
        <path d="M3855 4551 c3 -5 -3 -12 -12 -14 -11 -3 -8 -5 10 -6 18 -1 27 4 27
14 0 8 -7 15 -16 15 -8 0 -13 -4 -9 -9z"/>
        <path d="M3860 4406 c0 -18 -7 -42 -16 -55 -12 -16 -13 -26 -5 -34 8 -8 14 -1
25 24 24 60 29 96 11 96 -10 0 -15 -10 -15 -31z"/>
        <path d="M2491 4097 c-35 -12 -54 -37 -29 -37 7 0 38 7 68 15 30 8 69 15 85
16 26 0 27 2 10 9 -29 12 -94 11 -134 -3z"/>
        <path d="M2507 4002 c-28 -30 -20 -39 26 -32 27 4 41 11 39 19 -1 7 2 10 8 6
6 -4 19 -4 28 0 14 7 13 9 -8 15 -43 14 -76 11 -93 -8z"/>
        <path d="M2870 3968 c0 -10 4 -18 9 -18 5 0 11 -7 14 -14 4 -10 1 -13 -9 -9
-10 4 -14 -2 -14 -20 0 -14 -4 -29 -10 -32 -24 -15 -7 -24 20 -10 23 12 30 22
30 44 0 32 -39 90 -40 59z"/>
        <path d="M2383 3935 c0 -22 2 -30 4 -17 2 12 2 30 0 40 -3 9 -5 -1 -4 -23z"/>
        <path d="M2362 3855 c-29 -63 5 -111 55 -79 12 8 31 14 41 14 27 0 43 22 32
40 -8 12 -10 10 -10 -7 0 -20 -3 -21 -26 -13 -28 11 -48 5 -38 -12 4 -5 -5 -3
-18 6 -14 9 -28 13 -33 9 -7 -7 -1 19 12 55 9 23 -4 12 -15 -13z"/>
        <path d="M2376 3721 c-22 -24 -20 -32 13 -64 36 -33 45 -34 72 -3 12 14 35 30
51 37 l31 13 -44 13 c-70 22 -105 23 -123 4z"/>
        <path d="M1448 4163 c7 -3 16 -2 19 1 4 3 -2 6 -13 5 -11 0 -14 -3 -6 -6z"/>
        <path d="M3104 3805 c-10 -8 -14 -15 -8 -15 6 0 17 7 24 15 16 19 9 19 -16 0z"/>
        <path d="M2860 3720 c0 -5 5 -10 10 -10 6 0 10 5 10 10 0 6 -4 10 -10 10 -5 0
-10 -4 -10 -10z"/>
        <path d="M4114 3375 c-4 -8 -12 -15 -19 -15 -6 0 -20 -9 -29 -19 -38 -42 16
-89 56 -49 11 11 26 17 35 14 16 -7 53 19 53 37 0 6 -12 0 -27 -14 l-26 -24
26 36 c40 53 33 57 -18 10 -30 -28 -53 -41 -67 -39 -33 5 -32 25 2 36 16 6 30
18 30 26 0 20 -9 21 -16 1z"/>
        <path d="M940 3128 c0 -4 6 -8 13 -8 6 0 30 -3 52 -7 22 -3 37 -2 33 2 -11 12
-98 23 -98 13z"/>
        <path d="M2206 2824 c-16 -74 -27 -136 -25 -139 3 -2 18 56 34 130 15 74 26
137 24 139 -2 3 -17 -56 -33 -130z"/>
        <path d="M1952 2750 c0 -19 2 -27 5 -17 2 9 2 25 0 35 -3 9 -5 1 -5 -18z"/>
        <path d="M2171 2654 c0 -11 3 -14 6 -6 3 7 2 16 -1 19 -3 4 -6 -2 -5 -13z"/>
        <path d="M2174 2433 c37 -130 48 -164 53 -159 6 6 -45 176 -53 176 -3 0 -3 -8
0 -17z"/>
        <path d="M1835 2161 c-47 -21 -71 -46 -55 -56 17 -10 62 4 54 17 -5 7 -3 8 5
3 8 -4 25 1 42 14 15 11 35 21 43 21 8 0 18 5 21 10 10 17 -67 11 -110 -9z"/>
        <path d="M1616 1910 c20 -124 66 -239 110 -281 l23 -22 57 28 c66 32 150 112
215 205 l45 66 -108 -108 c-101 -100 -201 -174 -220 -162 -15 9 -41 68 -85
189 -24 66 -41 104 -37 85z"/>
        <path d="M1906 1335 c-81 -44 -218 -95 -257 -95 -14 0 -40 19 -67 48 -25 26
-42 40 -37 32 23 -41 51 -74 77 -90 34 -20 72 -15 166 24 55 22 202 110 202
121 0 7 4 9 -84 -40z"/>
        <path d="M3343 2880 c0 -30 2 -43 4 -27 2 15 2 39 0 55 -2 15 -4 2 -4 -28z"/>
        <path d="M4265 3149 c-22 -11 -32 -17 -22 -14 11 3 30 8 43 11 13 3 24 10 24
15 0 11 4 12 -45 -12z"/>
        <path d="M2644 2348 l-19 -23 23 19 c12 11 22 21 22 23 0 8 -8 2 -26 -19z"/>
        <path d="M2884 2202 c3 -6 -2 -13 -11 -15 -14 -4 -13 -5 5 -6 23 -1 30 13 10
25 -6 4 -8 3 -4 -4z"/>
        <path d="M1072 2200 c0 -14 2 -19 5 -12 2 6 2 18 0 25 -3 6 -5 1 -5 -13z"/>
        <path d="M4030 2610 l0 -40 105 0 105 0 0 40 0 40 -105 0 -105 0 0 -40z m120
6 c0 -8 -4 -18 -10 -21 -5 -3 -10 1 -10 9 0 9 -7 16 -16 16 -10 0 -14 -6 -10
-15 3 -8 1 -15 -4 -15 -6 0 -10 9 -10 20 0 16 7 20 30 20 19 0 30 -5 30 -14z
m57 -8 c-3 -8 -6 -5 -6 6 -1 11 2 17 5 13 3 -3 4 -12 1 -19z"/>
        <path d="M1368 2502 c13 -17 28 -35 34 -39 7 -3 2 8 -10 25 -13 17 -28 35 -34
39 -7 3 -2 -8 10 -25z"/>
        <path d="M3721 1748 c20 -18 39 -40 42 -48 4 -10 6 -8 6 6 1 15 -12 30 -41 48
l-43 27 36 -33z"/>
        <path d="M4772 2199 c-1 -102 -4 -235 -6 -295 l-5 -109 10 95 c5 52 8 185 6
295 l-2 200 -3 -186z"/>
        <path d="M4843 2095 c0 -38 2 -53 4 -32 2 20 2 52 0 70 -2 17 -4 1 -4 -38z"/>
        <path d="M4853 1915 c0 -22 2 -30 4 -17 2 12 2 30 0 40 -3 9 -5 -1 -4 -23z"/>
        <path d="M1296 2478 c10 -14 21 -24 23 -22 3 3 -6 15 -18 27 l-24 22 19 -27z"/>
        <path d="M1405 2180 c-3 -5 -1 -10 4 -10 6 0 11 5 11 10 0 6 -2 10 -4 10 -3 0
-8 -4 -11 -10z"/>
        <path d="M1305 1813 c-29 -70 -29 -70 0 -40 19 20 25 36 23 57 -3 29 -4 29
-23 -17z"/>
        <path d="M2099 1253 c-13 -16 -12 -17 4 -4 16 13 21 21 13 21 -2 0 -10 -8 -17
-17z"/>
        <path d="M2059 1203 l-24 -28 28 24 c15 14 27 26 27 28 0 8 -8 1 -31 -24z"/>
        <path d="M2004 1138 l-29 -33 33 29 c30 28 37 36 29 36 -2 0 -16 -15 -33 -32z"/>
        <path d="M4033 1123 c59 -2 155 -2 215 0 59 1 10 3 -108 3 -118 0 -167 -2
-107 -3z"/>
        <path d="M4465 1080 c3 -5 13 -10 21 -10 8 0 12 5 9 10 -3 6 -13 10 -21 10 -8
0 -12 -4 -9 -10z"/>
        <path d="M4143 1003 c42 -2 112 -2 155 0 42 1 7 3 -78 3 -85 0 -120 -2 -77 -3z"/>
        <path d="M1860 868 c-38 -10 -64 -29 -39 -27 16 1 99 38 84 37 -5 0 -26 -4
-45 -10z"/>
        <path d="M72 5038 c57 -19 66 -30 49 -57 -7 -11 -16 -11 -57 3 -26 9 -51 16
-56 16 -4 0 -8 -76 -8 -170 l0 -169 43 -12 c23 -6 115 -31 205 -54 l162 -43
-2 166 -3 167 -75 20 c-71 20 -75 22 -75 49 0 27 -5 31 -65 51 -36 12 -79 29
-97 38 -18 9 -42 17 -55 16 -14 0 0 -9 34 -21z m141 -58 c10 -9 -2 -60 -14
-60 -5 0 -9 11 -9 25 0 14 -5 24 -12 23 -6 -2 -14 5 -16 15 -3 16 0 18 20 12
12 -4 27 -11 31 -15z m-8 -80 c-3 -5 -14 -10 -23 -9 -14 0 -13 2 3 9 27 11 27
11 20 0z"/>
        <path d="M1814 4986 c-58 -49 -148 -81 -269 -96 -95 -12 -240 -3 -275 17 -14
8 -17 11 -5 7 36 -13 67 -9 79 8 13 21 4 31 -46 52 l-37 16 -30 -54 c-17 -29
-31 -56 -31 -59 0 -15 129 -31 245 -30 149 1 248 22 345 74 65 34 116 82 106
98 -12 18 -29 11 -82 -33z"/>
        <path d="M3078 4912 c-16 -2 -28 -9 -28 -18 0 -16 27 -19 49 -5 21 13 9 26
-21 23z"/>
        <path d="M1070 4886 c0 -2 8 -10 18 -17 15 -13 16 -12 3 4 -13 16 -21 21 -21
13z"/>
        <path d="M3208 4833 c7 -3 16 -2 19 1 4 3 -2 6 -13 5 -11 0 -14 -3 -6 -6z"/>
        <path d="M3118 4813 c6 -2 18 -2 25 0 6 3 1 5 -13 5 -14 0 -19 -2 -12 -5z"/>
        <path d="M2041 4677 c-19 -7 -36 -17 -38 -23 -3 -8 12 -6 41 4 38 14 51 15 78
4 44 -16 49 -6 5 13 -42 18 -42 17 -86 2z"/>
        <path d="M2238 4612 c-16 -9 -28 -20 -28 -24 0 -12 8 -10 35 8 16 10 39 15 65
12 36 -3 39 -2 24 9 -24 18 -64 16 -96 -5z"/>
        <path d="M1660 3624 c19 -9 62 -18 95 -20 l60 -4 -80 19 c-97 24 -122 25 -75
5z"/>
        <path d="M39 3403 c-1 -4 -1 -12 0 -17 1 -5 -4 -13 -10 -17 -10 -6 -10 -11 0
-23 8 -9 9 -16 3 -16 -5 0 -12 -11 -14 -25 -4 -17 -1 -25 8 -25 8 0 14 6 14
13 0 6 6 3 12 -8 12 -19 12 -19 19 5 7 24 7 24 8 3 1 -13 4 -23 9 -23 12 0 38
20 26 20 -16 0 -24 49 -14 76 9 23 -13 54 -27 40 -4 -4 -1 -11 7 -16 9 -6 10
-10 3 -10 -6 0 -19 7 -27 16 -9 8 -17 12 -17 7z m51 -37 c0 -11 -19 -15 -25
-6 -3 5 1 10 9 10 9 0 16 -2 16 -4z"/>
        <path d="M135 3379 c-4 -11 -4 -23 -1 -26 3 -4 1 -12 -5 -20 -9 -10 -8 -13 1
-13 9 0 11 -9 7 -30 -5 -22 -3 -30 8 -30 8 0 15 4 15 8 0 5 9 18 20 30 12 12
16 22 11 22 -6 0 -10 10 -8 23 1 17 -3 21 -18 20 -11 -1 -15 0 -8 3 13 6 7 34
-7 34 -5 0 -12 -9 -15 -21z"/>
        <path d="M186 3375 c4 -8 10 -15 15 -15 5 0 9 7 9 15 0 8 -7 15 -15 15 -9 0
-12 -6 -9 -15z"/>
        <path d="M260 3365 c6 -15 6 -26 0 -30 -6 -4 -10 4 -10 16 0 43 -8 13 -13 -48
-5 -60 7 -89 16 -40 4 20 4 19 6 -4 1 -21 7 -28 32 -33 46 -9 69 -7 69 5 0 7
-11 9 -27 6 -26 -5 -26 -4 -8 9 10 8 15 14 10 14 -5 0 -4 5 3 12 16 16 15 31
-1 25 -18 -7 -51 24 -55 51 -2 16 2 22 16 22 15 0 18 -5 14 -25 -2 -15 0 -25
7 -25 6 0 11 13 11 29 0 24 -5 29 -31 35 -47 9 -49 8 -39 -19z m43 -82 c-7 -2
-19 -2 -25 0 -7 3 -2 5 12 5 14 0 19 -2 13 -5z m17 -23 c0 -13 -28 -25 -38
-16 -3 4 0 11 8 16 20 13 30 12 30 0z"/>
        <path d="M571 3294 c16 -19 69 -47 69 -37 0 5 -19 18 -41 30 -27 15 -37 17
-28 7z"/>
        <path d="M5082 3300 c-18 -8 -22 -16 -20 -45 3 -37 8 -41 39 -25 13 8 19 21
19 45 0 37 -2 39 -38 25z"/>
        <path d="M180 3274 c0 -17 22 -14 28 4 2 7 -3 12 -12 12 -9 0 -16 -7 -16 -16z"/>
        <path d="M4970 3256 c-52 -21 -55 -24 -58 -60 -3 -34 -1 -38 15 -31 10 4 41
15 68 25 46 17 50 21 50 51 0 18 -4 33 -10 35 -5 1 -35 -8 -65 -20z m40 -24
c0 -5 -16 -13 -35 -19 -41 -13 -48 1 -7 15 35 13 42 14 42 4z"/>
        <path d="M4830 3201 c-42 -17 -45 -21 -48 -59 l-3 -41 53 23 c49 21 53 26 56
60 4 41 3 41 -58 17z m20 -21 c0 -11 -4 -20 -9 -20 -7 0 -8 17 -2 38 4 10 11
-2 11 -18z"/>
        <path d="M4740 3124 c0 -27 4 -43 10 -39 6 3 10 24 10 46 0 21 -4 39 -10 39
-5 0 -10 -21 -10 -46z"/>
        <path d="M8 2423 c3 -263 7 -556 9 -650 3 -125 1 -173 -7 -173 -9 0 -11 -90
-8 -335 3 -329 3 -336 23 -333 19 3 20 13 26 363 4 198 7 577 8 843 1 378 4
482 14 482 6 0 23 -3 36 -7 l23 -6 -6 -591 c-3 -325 -9 -723 -12 -883 l-6
-293 -37 -6 c-60 -10 -71 -15 -71 -31 0 -12 7 -14 28 -9 171 37 419 85 467 90
33 4 75 9 92 12 l33 5 2 842 3 842 22 10 c18 7 22 19 25 67 3 56 2 58 -27 68
-67 24 -612 170 -633 170 -7 0 -8 -168 -4 -477z m263 371 c46 -8 150 -33 231
-56 122 -33 148 -44 148 -59 0 -10 -4 -20 -9 -23 -10 -6 -364 103 -432 133
-55 24 -44 25 62 5z m-83 -431 l2 -230 100 -8 c135 -9 138 -25 6 -25 l-106 0
0 -165 0 -165 45 0 45 0 0 145 c0 122 2 145 15 145 13 0 15 -23 15 -151 0
-116 3 -150 13 -147 8 3 14 46 17 149 l6 144 2 -147 c1 -91 6 -148 12 -148 6
0 10 41 11 103 0 56 4 122 8 147 6 32 9 0 10 -112 l1 -158 -105 0 c-87 0 -105
-3 -105 -15 0 -12 16 -15 84 -15 45 0 111 -3 145 -6 l61 -7 0 -43 0 -44 -115
0 -115 0 0 -25 0 -25 112 0 111 0 -6 -127 c-4 -71 -7 -162 -7 -204 l0 -75
-107 -11 c-59 -7 -109 -11 -110 -9 -1 1 -5 82 -9 179 -5 134 -10 177 -20 177
-7 0 -16 5 -20 12 -5 7 -2 9 8 5 17 -6 35 29 36 71 1 17 -5 22 -25 22 -22 0
-25 -4 -21 -25 3 -14 1 -28 -5 -32 -6 -4 -7 -1 -2 7 5 9 4 11 -4 6 -6 -4 -9
-15 -7 -24 3 -10 1 -24 -4 -32 -12 -19 -11 -47 -11 385 1 453 10 717 25 712 7
-2 12 -78 14 -234z m122 137 c0 -20 -5 -30 -15 -30 -10 0 -15 10 -15 30 0 20
5 30 15 30 10 0 15 -10 15 -30z m90 -5 c0 -16 -6 -25 -15 -25 -9 0 -15 9 -15
25 0 16 6 25 15 25 9 0 15 -9 15 -25z m-90 -185 c0 -118 -2 -140 -15 -140 -13
0 -15 22 -15 140 0 118 2 140 15 140 13 0 15 -22 15 -140z m80 -11 c0 -91 -4
-138 -10 -134 -6 4 -10 62 -10 141 0 83 4 134 10 134 6 0 10 -54 10 -141z
m117 -126 c-2 -38 -3 -7 -3 67 0 74 1 105 3 68 2 -38 2 -98 0 -135z m-260
-330 c-2 -37 -3 -9 -3 62 0 72 1 102 3 68 2 -34 2 -93 0 -130z m260 -576 c-1
-139 -2 -22 -2 258 0 281 1 394 2 252 2 -142 2 -372 0 -510z m-325 173 l20 25
-3 -182 c-2 -100 -2 -184 1 -186 3 -3 57 1 120 8 63 8 118 14 123 15 4 0 7
-22 7 -48 l0 -49 -133 -22 c-74 -12 -144 -25 -155 -28 l-22 -5 1 248 c0 178 3
242 10 224 l10 -25 21 25z m325 -516 c-2 -2 -75 -17 -163 -34 -87 -16 -169
-33 -182 -36 -20 -6 -22 -3 -22 38 l0 45 183 30 182 29 3 -34 c2 -19 2 -36 -1
-38z"/>
        <path d="M2607 1613 c-20 -40 -89 -245 -84 -249 2 -3 14 24 27 58 12 35 34 98
50 141 29 79 31 98 7 50z"/>
        <path d="M3787 893 c18 -2 50 -2 70 0 21 2 7 4 -32 4 -38 0 -55 -2 -38 -4z"/>
        <path d="M2641 748 c-61 -224 -87 -470 -62 -593 7 -30 9 -6 10 90 1 166 13
262 57 454 19 84 33 155 31 158 -3 2 -19 -47 -36 -109z"/>
        <path d="M3988 753 c23 -2 61 -2 85 0 23 2 4 4 -43 4 -47 0 -66 -2 -42 -4z"/>
        <path d="M4143 713 c9 -2 25 -2 35 0 9 3 1 5 -18 5 -19 0 -27 -2 -17 -5z"/>
        <path d="M4604 640 c-84 -9 -109 -23 -131 -72 l-17 -38 -122 0 c-71 0 -125 -4
-129 -10 -4 -6 38 -10 118 -10 l124 0 -5 -68 c-5 -71 8 -113 42 -141 9 -8 16
-26 16 -41 0 -15 5 -42 11 -60 11 -29 10 -34 -15 -54 l-28 -21 23 -30 c12 -17
36 -45 53 -62 l30 -33 113 0 113 0 0 85 c0 109 0 109 182 109 l136 0 1 127 c1
108 -1 128 -15 133 -8 3 -62 6 -118 6 -68 0 -113 5 -132 14 -16 8 -70 20 -120
26 -51 7 -96 15 -100 19 -5 3 -23 25 -41 47 l-32 42 31 6 c17 3 142 6 279 6
215 0 249 2 249 15 0 13 -31 15 -222 14 -123 -1 -255 -5 -294 -9z m-27 -92
c15 -28 35 -55 43 -59 8 -4 62 -12 120 -19 58 -6 106 -13 108 -15 2 -1 -8 -14
-22 -28 -24 -24 -26 -24 -41 -7 -11 13 -36 19 -90 22 -85 6 -101 16 -143 89
-14 26 -31 45 -37 41 -5 -3 -4 2 4 11 20 26 27 22 58 -35z m451 -115 c-16 -2
-40 -2 -55 0 -16 2 -3 4 27 4 30 0 43 -2 28 -4z m-541 -35 c-3 -8 -6 -5 -6 6
-1 11 2 17 5 13 3 -3 4 -12 1 -19z m510 -64 c-3 -3 -12 -4 -19 -1 -8 3 -5 6 6
6 11 1 17 -2 13 -5z m-140 -41 c-16 -4 -14 -8 14 -29 l33 -24 -52 0 c-43 0
-52 3 -52 18 0 26 20 42 50 41 18 -1 20 -3 7 -6z m-250 -63 c13 -10 50 -29 81
-40 59 -23 72 -33 72 -63 0 -15 -5 -13 -25 11 -14 17 -48 38 -75 48 -28 10
-60 28 -72 41 -26 28 -15 30 19 3z m150 -2 c-3 -8 -6 -5 -6 6 -1 11 2 17 5 13
3 -3 4 -12 1 -19z m8 -28 c3 -6 -1 -7 -9 -4 -18 7 -21 14 -7 14 6 0 13 -4 16
-10z m-235 -60 c0 -5 -10 -10 -22 -10 -19 0 -20 2 -8 10 19 13 30 13 30 0z"/>
        <path d="M4763 583 c-40 -2 -73 -8 -73 -13 0 -12 171 -1 185 11 5 5 -1 8 -15
7 -14 -1 -58 -4 -97 -5z"/>
        <path d="M3788 533 c45 -2 119 -2 165 0 45 1 8 3 -83 3 -91 0 -128 -2 -82 -3z"/>
        <path d="M1720 436 c-41 -18 -109 -49 -151 -69 -55 -27 -89 -37 -123 -37 -29
0 -45 4 -41 10 3 6 -1 7 -10 4 -28 -11 -2 -24 60 -30 58 -6 63 -4 166 50 205
108 246 137 99 72z"/>
        <path d="M3824 390 c40 -12 478 -24 450 -11 -11 5 -124 12 -250 15 -151 4
-219 3 -200 -4z"/>
        <path d="M1713 303 c9 -2 25 -2 35 0 9 3 1 5 -18 5 -19 0 -27 -2 -17 -5z"/>
        <path d="M4330 301 c-24 -7 -24 -7 9 -14 48 -10 99 -9 106 3 4 6 -8 10 -29 10
-19 0 -40 2 -48 4 -7 2 -24 1 -38 -3z"/>
        <path d="M2936 215 c-21 -47 -43 -85 -49 -85 -6 0 -8 -3 -4 -6 3 -3 -7 -30
-24 -58 -33 -60 -34 -66 -15 -66 7 0 37 53 69 123 51 110 75 177 66 177 -2 0
-21 -38 -43 -85z"/>
        <path d="M1325 267 c-41 -16 -136 -69 -131 -74 4 -5 168 66 181 78 12 12 -12
10 -50 -4z"/>
        <path d="M0 211 c0 -25 6 -27 13 -6 4 8 2 17 -3 20 -6 4 -10 -3 -10 -14z"/>
        <path d="M312 180 c0 -19 2 -27 5 -17 2 9 2 25 0 35 -3 9 -5 1 -5 -18z"/>
        <path d="M1336 129 c-43 -5 -84 -11 -90 -14 -13 -6 162 4 254 15 l65 7 -75 0
c-41 0 -111 -3 -154 -8z"/>
        <path d="M4180 130 c20 -13 217 -13 225 0 4 6 -37 10 -117 10 -83 0 -118 -3
-108 -10z"/>
        <path d="M33 92 c-33 -16 -44 -32 -20 -32 15 0 64 37 57 43 -3 3 -20 -2 -37
-11z"/>
    </g>
</svg>